<svg width="81" height="258" viewBox="0 0 81 258" fill="none" xmlns="http://www.w3.org/2000/svg">
<path d="M8.78324 117.132C7.50112 123.603 -1.81326 203.876 1.23241 223.038C4.27808 242.2 53.9362 282.384 56.1102 283.087C58.6441 281.119 62.3739 274.669 62.3739 274.669C62.3739 274.669 25.9627 230.04 25.2836 228.249C24.6045 226.459 33.2449 123.067 33.2449 123.067L8.78324 117.132Z" fill="#1F161E"/>
<path d="M68.085 131.758L30.9339 292.073H18.4167L31.1011 124.831L68.085 131.758Z" fill="#AB8DE5"/>
<path d="M41.6975 39.969C46.826 39.969 73.5783 40.8859 78.4128 50.8475C83.2474 60.8092 78.6915 106.854 75.6864 108.639C74.0648 109.599 73.6239 108.666 73.1526 110.618C72.6813 112.569 68.0849 131.758 68.0849 131.758C65.1659 131.844 22.6076 125.062 8.79316 117.132C8.87425 114.928 9.54318 109.197 9.54318 108.757C7.70868 109.551 5.48904 109.717 4.87585 108.757C-0.51108 100.12 7.52624 55.0885 13.2882 46.0276C15.746 42.1405 33.4677 39.9959 41.6975 39.969Z" fill="#FBDC8E"/>
<path d="M59.313 109.91C60.5698 109.91 71.3892 117.952 70.4619 121.904C71.222 118.73 73.6139 108.923 73.6139 108.923C72.5852 109.095 60.21 109.91 59.313 109.91Z" fill="#1F161E"/>
<path d="M48.3212 45.2233C48.3212 46.9712 35.2922 46.9712 35.2922 45.2233V27.5303H48.3212V45.2233Z" fill="#D08B5B"/>
<path d="M40.8413 31.7177C41.8548 31.7177 48.3212 34.7416 48.3212 36.4251V27.5303C46.7097 27.5303 40.8413 31.7177 40.8413 31.7177Z" fill="#1F161E"/>
<path d="M39.0624 33.0098C46.0622 33.0098 51.7367 27.0063 51.7367 19.6007C51.7367 12.195 46.0622 6.19152 39.0624 6.19152C32.0626 6.19152 26.3882 12.195 26.3882 19.6007C26.3882 27.0063 32.0626 33.0098 39.0624 33.0098Z" fill="#D08B5B"/>
<path d="M34.7753 -0.00102329C28.2684 -0.00102329 24.2092 4.32036 24.2092 9.8588C24.2092 14.4643 25.2684 17.07 26.51 17.7295C27.2954 13.258 29.0032 11.1885 30.4171 10.2984C31.5117 11.1885 33.3969 13.3438 35.9105 14.0086C38.424 14.6734 44.9664 14.5448 50.252 18.6088C51.975 16.9467 53.7031 14.786 53.7031 12.2393C53.7031 9.69259 52.6389 6.49713 46.3752 4.65277C42.2451 3.43571 41.6724 -0.00102329 34.7753 -0.00102329Z" fill="#1F161E"/>
<path d="M27.2194 23.5843C28.4453 23.5843 29.439 23.037 29.439 22.3618C29.439 21.6867 28.4453 21.1394 27.2194 21.1394C25.9935 21.1394 24.9998 21.6867 24.9998 22.3618C24.9998 23.037 25.9935 23.5843 27.2194 23.5843Z" fill="#FA9E9F"/>
<path d="M41.1808 23.5843C42.4067 23.5843 43.4005 23.037 43.4005 22.3618C43.4005 21.6867 42.4067 21.1394 41.1808 21.1394C39.9549 21.1394 38.9612 21.6867 38.9612 22.3618C38.9612 23.037 39.9549 23.5843 41.1808 23.5843Z" fill="#FA9E9F"/>
<path d="M32.6418 19.8366C32.2263 20.4639 30.108 23.0964 32.3428 24.1579" stroke="#1F161E" stroke-width="0.444171" stroke-miterlimit="10" stroke-linecap="round"/>
<path d="M36.8176 27.2247C37.4815 27.2247 38.5153 26.3454 39.0575 25.5573" stroke="#1F161E" stroke-width="0.444171" stroke-miterlimit="10" stroke-linecap="round"/>
<path d="M50.779 24.2437C52.3967 24.2437 53.7081 22.8563 53.7081 21.1448C53.7081 19.4333 52.3967 18.0458 50.779 18.0458C49.1613 18.0458 47.8499 19.4333 47.8499 21.1448C47.8499 22.8563 49.1613 24.2437 50.779 24.2437Z" fill="#D08B5B"/>
<path d="M59.6068 66.353C59.3788 69.3126 58.4869 83.9388 58.8213 85.8636C54.5696 87.4291 15.6194 106.966 8.90479 109.095" stroke="#1F161E" stroke-width="0.444171" stroke-miterlimit="10" stroke-linecap="round"/>
<path d="M14.388 61.7368C13.4961 65.0502 10.4758 80.0892 12.5991 87.0753" stroke="#1F161E" stroke-width="0.444171" stroke-miterlimit="10" stroke-linecap="round"/>
<path d="M24.3257 102.264C26.3528 103.771 45.7873 112.87 72.6459 109.438" stroke="#1F161E" stroke-width="0.444171" stroke-miterlimit="10" stroke-linecap="round"/>
<path d="M22.471 87.0753C23.7734 87.2951 19.5267 83.7083 17.1195 85.0433C14.7124 86.3783 11.4691 92.4207 12.1329 93.8254C12.2224 94.0794 12.3645 94.3089 12.5489 94.4971C12.7333 94.6852 12.9552 94.8273 13.1983 94.9127C13.4414 94.9981 13.6996 95.0247 13.9537 94.9905C14.2078 94.9564 14.4515 94.8624 14.6668 94.7154C15.3205 94.2651 20.1855 86.6893 22.471 87.0753Z" fill="#D08B5B"/>
</svg>
