


<svg width="600" height="400" viewBox="0 0 670 468" fill="none" xmlns="http://www.w3.org/2000/svg">
<path fill-rule="evenodd" clip-rule="evenodd" d="M497.986 311.36C515.479 311.968 532.376 311.651 544.03 311.409L544.033 311.42L549.619 349.144C549.619 349.144 557.141 353.053 558.342 355.708L510.165 351.871L497.986 311.36ZM412.909 308.295C424.276 308.413 440.71 307.548 458.416 307.891C454.154 321.672 450.046 335.335 446.132 349.887L398.958 353.564C398.958 353.564 404.061 347.52 408.184 346.941C408.184 346.941 409.199 329.915 412.909 308.295ZM447.56 218.577C446.321 217.347 445.47 215.997 445.443 215.954L434.603 201.092C434.603 201.092 435.785 182.704 458.492 183.708C458.492 183.708 461.945 175.676 472.28 175.074C472.28 175.074 469.798 167.842 480.542 168.018C480.542 168.018 489.383 168.5 489.626 174.404L489.437 176.899C489.437 176.899 501.606 174.955 508.019 187.934C508.019 187.934 523.243 185.356 521.277 201.51C521.277 201.51 522.927 215.778 505.38 222.705L453.259 221.73L447.56 218.577ZM490.026 155.848C495.387 155.848 499.737 158.887 499.737 162.631C499.737 166.375 495.387 169.415 490.026 169.415C484.667 169.415 480.314 166.375 480.314 162.631C480.314 158.887 484.667 155.848 490.026 155.848Z" fill="white"/>
<path fill-rule="evenodd" clip-rule="evenodd" d="M475.085 174.182C475.107 174.124 475.144 174.068 475.203 174.019C475.571 173.706 475.985 173.9 476.039 173.929C476.135 173.978 476.358 174.114 476.258 174.373C476.233 174.435 475.929 174.813 475.77 174.938C475.377 175.247 474.774 175.319 474.222 175.358C472.886 175.451 471.593 175.57 470.298 175.842C466.45 176.65 462.696 178.268 460.462 180.651C459.807 181.349 459.292 182.134 459.052 182.954C459.015 183.082 459.125 183.693 459.123 183.973C459.118 184.18 459.025 184.316 458.973 184.363C458.953 184.382 458.747 184.56 458.328 184.516C457.84 184.464 455.493 184.118 455.353 184.113C453.421 184.053 451.478 184.278 449.644 184.698C443.023 186.215 438.591 190.274 436.475 194.766C435.373 197.098 434.488 200.441 435.084 203.418C435.469 205.343 436.475 207.116 438.495 208.331C439.302 208.814 440.45 208.999 441.487 209.048C441.701 209.059 442.534 208.992 442.946 209.048C443.233 209.086 443.42 209.184 443.518 209.276C443.685 209.437 443.788 209.728 443.788 210.086C443.793 210.657 443.577 211.443 443.611 211.757C443.793 213.363 444.428 214.982 445.558 216.392C447.545 218.867 451.098 220.37 454.993 221.117C455.307 221.177 455.491 221.403 455.405 221.622C455.319 221.841 454.995 221.97 454.681 221.91C450.483 221.105 446.674 219.464 444.531 216.795C443.319 215.28 442.63 213.545 442.439 211.82C442.407 211.536 442.559 210.885 442.603 210.325C442.615 210.169 442.618 210.021 442.598 209.896C442.596 209.879 442.593 209.862 442.586 209.843C442.191 209.821 441.578 209.877 441.406 209.869C440.126 209.807 438.723 209.55 437.728 208.952C435.494 207.611 434.346 205.662 433.919 203.532C433.296 200.427 434.209 196.94 435.356 194.509C437.588 189.772 442.297 185.516 449.276 183.917C451.245 183.466 453.332 183.227 455.407 183.292C455.52 183.296 457.014 183.508 457.916 183.628L457.887 183.176C457.872 182.997 457.879 182.853 457.896 182.79C458.166 181.868 458.74 180.985 459.476 180.2C461.86 177.658 465.855 175.917 469.957 175.055C471.326 174.767 472.692 174.638 474.107 174.54C474.252 174.529 474.404 174.521 474.551 174.5C474.676 174.482 474.803 174.461 474.892 174.391C474.938 174.354 475.027 174.252 475.085 174.182ZM476.039 174.593L476.034 174.596V174.596L476.039 174.593ZM476.066 174.575L476.054 174.583L476.061 174.58L476.066 174.575ZM476.091 174.559L476.079 174.567L476.086 174.562L476.091 174.559Z" fill="black"/>
<path fill-rule="evenodd" clip-rule="evenodd" d="M508.32 187.17C508.522 187.13 508.801 187.076 508.885 187.066C509.993 186.933 511.101 186.991 512.193 187.178C516.193 187.864 519.202 190.059 520.96 192.58C523.182 195.766 523.538 199.625 521.338 202.866C520.963 203.42 520.276 203.983 519.619 204.545C519.047 205.034 518.493 205.518 518.294 206.011C518.211 206.218 518.336 206.5 518.456 206.784C518.623 207.171 518.827 207.558 518.888 207.836C519.224 209.364 519.307 210.942 518.861 212.461C517.409 217.407 511.2 221.703 504.401 223.871C504.105 223.966 503.757 223.873 503.622 223.668C503.487 223.46 503.617 223.217 503.911 223.123C510.38 221.06 516.328 217.001 517.708 212.297C518.128 210.871 518.039 209.393 517.725 207.961C517.657 207.654 517.39 207.205 517.235 206.784C517.1 206.414 517.054 206.06 517.161 205.788C517.399 205.2 518.025 204.608 518.706 204.025C519.3 203.517 519.935 203.015 520.274 202.514C522.321 199.497 521.968 195.906 519.901 192.94C518.294 190.635 515.572 188.604 511.911 187.977C510.979 187.817 510.032 187.763 509.083 187.877C508.926 187.896 508.443 188.025 508.164 188.036C507.945 188.044 507.774 188.005 507.658 187.953C507.516 187.889 507.32 187.709 507.19 187.418C506.905 186.773 506.685 185.36 506.555 185.086C505.753 183.387 504.509 181.783 502.697 180.504C500.693 179.093 498.106 178.064 495.487 177.319C495.006 177.183 493.547 176.972 492.632 176.823C492.147 176.744 491.791 176.67 491.7 176.635C491.526 176.568 491.46 176.479 491.428 176.427C491.352 176.303 491.364 176.187 491.44 176.079C491.485 176.02 491.595 175.874 491.933 175.846C492.093 175.833 492.242 175.865 492.36 175.927C492.488 175.951 492.699 175.99 492.9 176.022C493.871 176.18 495.421 176.413 495.931 176.558C498.695 177.344 501.419 178.436 503.533 179.926C505.476 181.294 506.815 183.009 507.673 184.828C507.788 185.073 507.982 186.207 508.222 186.928C508.249 187.009 508.286 187.097 508.32 187.17ZM492.311 176.604C492.24 176.635 492.161 176.655 492.073 176.662C492.176 176.654 492.252 176.632 492.311 176.604Z" fill="black"/>
<path fill-rule="evenodd" clip-rule="evenodd" d="M489.839 156.499C494.965 156.499 499.134 159.32 499.134 162.802C499.134 166.284 494.965 169.105 489.839 169.105C489.513 169.105 489.25 169.289 489.25 169.516C489.25 169.742 489.513 169.927 489.839 169.927C495.622 169.927 500.311 166.731 500.311 162.802C500.311 158.872 495.622 155.676 489.839 155.676C489.513 155.676 489.25 155.861 489.25 156.087C489.25 156.314 489.513 156.499 489.839 156.499Z" fill="black"/>
<path fill-rule="evenodd" clip-rule="evenodd" d="M489.828 169.105C484.701 169.105 480.531 166.284 480.531 162.802C480.531 159.32 484.701 156.499 489.828 156.499C490.152 156.499 490.417 156.314 490.417 156.087C490.417 155.861 490.152 155.676 489.828 155.676C484.043 155.676 479.354 158.872 479.354 162.802C479.354 166.731 484.043 169.927 489.828 169.927C490.152 169.927 490.417 169.742 490.417 169.516C490.417 169.289 490.152 169.105 489.828 169.105Z" fill="black"/>
<path fill-rule="evenodd" clip-rule="evenodd" d="M550.053 349.279C554.938 350.839 558.244 354.944 558.244 354.944C558.379 355.111 558.369 355.315 558.219 355.475C558.07 355.636 557.805 355.725 557.532 355.706L510.208 352.561C509.885 352.54 509.622 352.374 509.556 352.153L497.772 310.6C497.689 310.321 497.946 310.05 498.343 309.992C498.741 309.935 499.131 310.113 499.212 310.393L510.888 351.574L556.184 354.584C554.97 353.332 552.407 351.052 549.086 350.108C548.834 350.036 548.66 349.873 548.633 349.683L542.95 310.79C542.909 310.509 543.203 310.256 543.608 310.227C544.012 310.199 544.373 310.405 544.415 310.686L550.053 349.279Z" fill="#224D99"/>
<path fill-rule="evenodd" clip-rule="evenodd" d="M445.856 349.492L459.004 305.193C459.087 304.915 459.477 304.735 459.874 304.794C460.272 304.85 460.529 305.123 460.446 305.4L447.188 350.072C447.122 350.293 446.859 350.458 446.536 350.478L399.211 353.624C398.939 353.642 398.674 353.553 398.525 353.392C398.375 353.233 398.365 353.029 398.5 352.861C398.5 352.861 401.806 348.757 406.691 347.196L412.329 308.603C412.371 308.323 412.732 308.117 413.136 308.144C413.541 308.173 413.835 308.427 413.793 308.708L408.111 347.601C408.084 347.791 407.91 347.953 407.657 348.025C404.337 348.969 401.774 351.249 400.56 352.502L445.856 349.492Z" fill="#224D99"/>
<path fill-rule="evenodd" clip-rule="evenodd" d="M446.39 308.989L439.756 334.016C439.631 334.497 438.969 334.819 438.279 334.732C437.59 334.645 437.129 334.182 437.254 333.699L443.53 308.896L446.39 308.989Z" fill="#224D99"/>
<path fill-rule="evenodd" clip-rule="evenodd" d="M512.891 312.188L519.525 337.215C519.65 337.696 520.312 338.018 521.002 337.931C521.691 337.844 522.152 337.381 522.027 336.898L515.751 312.095L512.891 312.188Z" fill="#224D99"/>
<path fill-rule="evenodd" clip-rule="evenodd" d="M412.78 308.484C412.78 308.484 425.368 216.436 465.45 218.969L495.446 221.4C495.446 221.4 532.195 222.318 543.827 311.596H498.492C498.492 311.596 480.721 249.552 478.521 247.717C476.319 245.883 458.721 308.484 458.721 308.484H412.78Z" fill="white"/>
<path fill-rule="evenodd" clip-rule="evenodd" d="M543.02 311.089C537.196 266.957 525.223 244.613 514.658 233.305C504.289 222.21 495.419 221.92 495.419 221.92C495.399 221.918 495.379 221.918 495.36 221.917L465.364 219.486C464.962 219.453 464.673 219.198 464.719 218.916C464.766 218.635 465.131 218.432 465.533 218.465L495.507 220.894C496.142 220.918 505.361 221.475 515.889 232.745C526.564 244.167 538.726 266.781 544.56 311.554C544.577 311.698 544.509 311.842 544.371 311.948C544.231 312.055 544.033 312.116 543.827 312.116H498.491C498.141 312.116 497.839 311.943 497.77 311.704C497.77 311.704 486.401 272.006 480.726 255.189C479.74 252.263 478.926 250.033 478.377 248.834C478.185 248.416 478.063 248.142 477.957 248.052C477.695 247.835 477.737 247.511 478.048 247.33C478.36 247.146 478.823 247.175 479.086 247.393C479.242 247.523 479.498 247.903 479.78 248.52C480.334 249.735 481.16 251.991 482.158 254.953C487.497 270.774 497.873 306.832 499.095 311.089H543.02Z" fill="#FFD274"/>
<path fill-rule="evenodd" clip-rule="evenodd" d="M478.691 248.216C478.566 248.396 478.311 248.771 478.122 249.143C473.674 257.936 459.442 308.582 459.442 308.582C459.374 308.823 459.072 308.998 458.719 308.998H412.778C412.572 308.998 412.373 308.936 412.233 308.828C412.093 308.722 412.027 308.578 412.047 308.434C412.047 308.434 418.237 263.226 435.727 236.97C439.509 231.293 443.825 226.497 448.706 223.213C453.699 219.854 459.293 218.064 465.514 218.458C465.919 218.483 466.216 218.733 466.181 219.016C466.145 219.299 465.787 219.508 465.382 219.482C459.58 219.115 454.383 220.822 449.726 223.955C444.956 227.163 440.757 231.855 437.061 237.404C420.797 261.821 414.364 302.71 413.592 307.97H458.115C459.486 303.11 472.511 257.148 476.737 248.802C477.146 247.99 477.536 247.497 477.791 247.338C478.061 247.171 478.333 247.146 478.556 247.171C478.74 247.194 478.924 247.255 479.084 247.387C479.344 247.605 479.302 247.929 478.99 248.11C478.902 248.163 478.799 248.199 478.691 248.216ZM477.985 248.069V248.071L477.983 248.069H477.985Z" fill="#FFD274"/>
<path fill-rule="evenodd" clip-rule="evenodd" d="M543.38 311.57L535.476 311.534C535.23 310.802 535.409 310.009 536.064 309.35C534.019 308.846 532.913 307.296 533.595 305.853C534.276 304.413 536.498 303.604 538.585 304.022C538.644 302.7 540.069 301.603 541.93 301.372L543.38 311.57ZM495.977 304.193C496.08 304.209 496.183 304.226 496.286 304.247C496.352 302.755 498.157 301.552 500.364 301.552C502.572 301.552 504.374 302.755 504.443 304.247C506.527 303.829 508.752 304.637 509.433 306.078C510.115 307.52 509.007 309.07 506.961 309.574C507.511 310.131 507.727 310.78 507.636 311.407L498.218 311.366L495.977 304.193ZM448.94 308.574C447.265 307.666 446.885 306.018 448.076 304.815C446.031 304.31 444.925 302.76 445.607 301.319C446.289 299.877 448.51 299.07 450.597 299.488C450.664 297.996 452.469 296.793 454.676 296.793C456.881 296.793 458.686 297.996 458.754 299.488C459.595 299.318 460.459 299.349 461.236 299.541L458.222 308.639L455.429 308.62C455.152 308.476 454.897 308.305 454.676 308.108C454.46 308.3 454.212 308.467 453.943 308.61L448.94 308.574ZM517.026 290.133C517.095 288.641 518.897 287.438 521.104 287.438C523.312 287.438 525.117 288.641 525.183 290.133C527.27 289.715 529.492 290.523 530.173 291.964C530.855 293.405 529.749 294.957 527.704 295.46C528.925 296.696 528.494 298.397 526.708 299.287C524.925 300.178 522.436 299.935 521.104 298.755C519.773 299.935 517.286 300.178 515.501 299.287C513.715 298.397 513.284 296.696 514.507 295.46C512.462 294.957 511.354 293.405 512.035 291.964C512.717 290.523 514.939 289.715 517.026 290.133ZM416.663 289.268C416.83 289.287 416.994 289.311 417.159 289.345C417.227 287.851 419.032 286.65 421.237 286.65C423.444 286.65 425.249 287.851 425.316 289.345C427.403 288.927 429.624 289.734 430.306 291.176C430.988 292.617 429.882 294.167 427.837 294.672C429.058 295.908 428.626 297.609 426.841 298.499C425.058 299.39 422.569 299.145 421.237 297.965C419.906 299.145 417.419 299.39 415.633 298.499C415.199 298.284 414.846 298.02 414.579 297.727C415.17 295.219 415.866 292.362 416.663 289.268ZM486.979 275.406C487.884 275.069 488.973 274.967 490.027 275.178C490.094 273.686 491.899 272.484 494.106 272.484C496.311 272.484 498.115 273.686 498.182 275.178C500.269 274.76 502.491 275.567 503.172 277.009C503.854 278.45 502.748 280.002 500.703 280.506C501.927 281.741 501.495 283.442 499.71 284.333C497.924 285.223 495.435 284.98 494.106 283.8C493.1 284.691 491.435 285.049 489.91 284.787L486.979 275.406ZM442.252 274.301C442.318 272.809 444.123 271.607 446.33 271.607C448.535 271.607 450.34 272.809 450.409 274.301C452.493 273.885 454.718 274.692 455.399 276.132C456.081 277.575 454.973 279.125 452.927 279.63C454.151 280.864 453.719 282.565 451.934 283.457C450.149 284.346 447.66 284.103 446.33 282.923C444.999 284.103 442.509 284.346 440.724 283.457C438.939 282.565 438.51 280.864 439.731 279.63C437.686 279.125 436.579 277.575 437.261 276.132C437.943 274.692 440.165 273.885 442.252 274.301ZM535.387 273.213C535.206 273.347 535.005 273.47 534.782 273.583C532.996 274.474 530.507 274.229 529.175 273.049C527.846 274.229 525.357 274.474 523.572 273.583C521.786 272.691 521.355 270.99 522.578 269.756C520.533 269.251 519.425 267.701 520.106 266.26C520.788 264.818 523.012 264.011 525.097 264.427C525.166 262.935 526.971 261.733 529.175 261.733C530.23 261.733 531.194 262.008 531.92 262.457L535.387 273.213ZM471.659 268.071C471.575 268.011 471.497 267.947 471.421 267.881C470.092 269.061 467.603 269.304 465.817 268.413C464.032 267.523 463.6 265.822 464.824 264.586C462.779 264.083 461.67 262.533 462.352 261.09C463.034 259.65 465.258 258.841 467.345 259.259C467.411 257.767 469.216 256.564 471.421 256.564C472.956 256.564 474.298 257.145 474.992 258.002L471.659 268.071ZM429.664 249.606C429.7 249.604 429.737 249.604 429.774 249.604C431.981 249.604 433.786 250.807 433.852 252.299C435.939 251.881 438.161 252.689 438.843 254.13C439.525 255.573 438.419 257.123 436.373 257.626C437.597 258.862 437.166 260.563 435.38 261.453C433.595 262.344 431.106 262.101 429.774 260.921C428.624 261.942 426.603 262.262 424.926 261.753C426.4 257.582 427.984 253.476 429.664 249.606ZM500.911 248.527C500.977 247.035 502.751 245.832 504.921 245.832C507.091 245.832 508.867 247.035 508.931 248.527C510.983 248.109 513.168 248.916 513.84 250.358C514.51 251.799 513.421 253.349 511.41 253.854C512.612 255.088 512.19 256.79 510.434 257.681C508.678 258.572 506.231 258.327 504.921 257.147C503.611 258.327 501.164 258.572 499.41 257.681C497.654 256.79 497.23 255.088 498.432 253.854C496.421 253.349 495.332 251.799 496.004 250.358C496.673 248.916 498.859 248.109 500.911 248.527ZM446.343 236.246C446.409 234.754 448.214 233.552 450.421 233.552C452.626 233.552 454.431 234.754 454.497 236.246C456.584 235.83 458.808 236.637 459.49 238.077C460.172 239.52 459.063 241.07 457.018 241.575C458.242 242.809 457.81 244.51 456.025 245.402C454.239 246.293 451.75 246.048 450.421 244.868C449.089 246.048 446.6 246.293 444.815 245.402C443.029 244.51 442.6 242.809 443.821 241.575C441.776 241.07 440.67 239.52 441.352 238.077C442.034 236.637 444.256 235.83 446.343 236.246ZM476.272 232.625C476.341 231.133 478.143 229.93 480.35 229.93C482.557 229.93 484.362 231.133 484.429 232.625C486.516 232.207 488.737 233.015 489.419 234.456C490.101 235.897 488.995 237.449 486.95 237.952C488.171 239.187 487.742 240.888 485.956 241.779C484.171 242.67 481.682 242.427 480.35 241.246C479.021 242.427 476.532 242.67 474.746 241.779C472.961 240.888 472.529 239.187 473.753 237.952C471.708 237.449 470.599 235.897 471.281 234.456C471.963 233.015 474.187 232.207 476.272 232.625ZM504.825 224.467C508.075 226.084 511.766 228.414 514.743 231.616C514.397 231.811 514 231.969 513.558 232.078C514.78 233.312 514.35 235.014 512.565 235.905C510.78 236.796 508.291 236.551 506.959 235.371C505.63 236.551 503.141 236.796 501.355 235.905C499.57 235.014 499.138 233.312 500.362 232.078C498.317 231.573 497.208 230.023 497.89 228.582C498.572 227.14 500.796 226.333 502.881 226.749C502.925 225.786 503.692 224.944 504.825 224.467ZM451.765 222.156C454.664 220.748 460.724 218.479 468.515 219.243C468.991 220.618 467.894 222.038 465.955 222.516C467.176 223.751 466.747 225.452 464.961 226.343C463.176 227.234 460.687 226.991 459.355 225.81C458.026 226.991 455.537 227.234 453.751 226.343C451.966 225.452 451.534 223.751 452.758 222.516C452.395 222.427 452.062 222.305 451.765 222.156Z" fill="#FFD274"/>
<path fill-rule="evenodd" clip-rule="evenodd" d="M469.519 185.234C467.815 185.307 453.098 184.125 442.03 192.267C441.248 192.845 440.561 193.483 439.985 194.169C436.147 198.723 417.072 221.617 405.828 237.262L425.229 246.313L455.474 210.362C455.474 210.362 454.39 216.339 463.793 218.924L496.476 221.212C496.476 221.212 502.548 220.245 504.645 214.189C504.645 214.189 519.225 224.423 529.25 231.461C534.722 235.304 543.192 236.119 549.949 233.457C555.754 231.17 559.032 226.675 558.27 222.05C556.678 212.406 554.142 197.049 554.142 197.049L528.537 203.34L529.805 207.467C529.805 207.467 512.125 190.517 497.818 187.694C497.818 187.694 474.27 197.173 469.519 185.234Z" fill="#EF7B58"/>
<path fill-rule="evenodd" clip-rule="evenodd" d="M527.302 204.423C527.302 204.423 533.239 222.711 533.332 223.3C533.381 223.616 533.786 223.844 534.237 223.809C534.689 223.775 535.015 223.491 534.966 223.175C534.875 222.583 528.906 204.169 528.906 204.169C528.805 203.86 528.366 203.666 527.922 203.736C527.481 203.806 527.201 204.114 527.302 204.423Z" fill="#AB494A"/>
<path fill-rule="evenodd" clip-rule="evenodd" d="M487.465 201.053L501.326 201.9L500.661 206.705C500.487 207.959 498.891 208.877 497.095 208.757C494.881 208.606 491.962 208.409 489.748 208.26C487.953 208.139 486.638 207.023 486.812 205.769L487.465 201.053ZM487.565 200.331L487.847 198.294L501.696 199.23L501.426 201.178L487.565 200.331Z" fill="#88C9D3"/>
<path fill-rule="evenodd" clip-rule="evenodd" d="M504.79 214.396C504.79 214.396 505.163 212.452 505.388 210.404C505.391 210.166 505.651 209.971 505.989 209.95C506.328 209.93 506.632 210.093 506.691 210.326C507.382 212.621 508.106 215.311 508.184 216.708L504.79 214.396Z" fill="#AB494A"/>
<path fill-rule="evenodd" clip-rule="evenodd" d="M455.494 210.573C455.494 210.573 455.98 208.21 456.399 206.174C456.424 206.047 456.309 205.928 456.13 205.899C455.951 205.87 455.772 205.942 455.715 206.064C454.222 209.312 451.956 214.242 451.956 214.242L455.494 210.573Z" fill="#AB494A"/>
<path fill-rule="evenodd" clip-rule="evenodd" d="M407.767 237.663C401.453 247.555 399.116 249.748 394.902 258.158C394.195 259.565 394.685 261.11 396.151 262.095C396.385 262.251 396.627 262.384 396.876 262.482C397.057 263.312 397.784 264.725 399.393 264.922C399.501 265.749 400.339 267.065 401.856 267.297C401.856 267.297 402.163 267.822 402.575 268.528C402.909 269.098 403.702 269.449 404.569 269.404C405.436 269.362 406.196 268.933 406.48 268.331L406.48 268.331C408.602 269.401 409.256 269.044 411.102 266.153C418.693 251.499 414.591 258.648 425.055 246.156L407.767 237.663Z" fill="#AB494A"/>
<path fill-rule="evenodd" clip-rule="evenodd" d="M529.067 203.623L524.035 184.295C524.035 184.295 517.98 183.363 521.001 180.672C521.001 180.672 516.032 178.847 519.086 176.791C519.086 176.791 515.836 174.672 519.049 173.038C519.049 173.038 516.972 170.278 523.318 169.102L523.74 171.911L530.112 172.489L529.641 169.673C529.641 169.673 533.084 170.274 536.211 170.82C539.276 171.356 541.677 173.021 542.467 175.159C545.145 182.415 551.094 198.528 551.094 198.528L529.067 203.623Z" fill="#AB494A"/>
<path fill-rule="evenodd" clip-rule="evenodd" d="M473.127 184.909L469.213 185.23C469.213 185.23 471.682 197.49 497.688 187.733L488.506 185.761L487.26 181.075C487.26 181.075 488.135 178.717 488.261 176.787C488.261 176.787 488.449 175.119 488.275 174.402C488.275 174.402 483.287 173.248 482.757 170.815C482.757 170.815 473.902 175.227 471.157 172.75L471.273 174.356C471.273 174.356 471.312 177.595 473.507 180.897L473.127 184.909Z" fill="#AB494A"/>
<path fill-rule="evenodd" clip-rule="evenodd" d="M471.816 175.305C471.674 175.213 471.573 174.906 471.458 174.783C471.149 174.449 470.722 174.131 470.254 173.906C469.867 173.721 469.401 173.552 468.92 173.558C467.775 173.572 467.115 174.49 467.171 175.194C467.26 176.318 468.466 177.104 470.043 177.228C470.762 177.285 471.421 177.169 472.076 176.964" fill="#AB494A"/>
<path fill-rule="evenodd" clip-rule="evenodd" d="M487.126 175.876C487.102 175.87 487.303 175.667 487.317 175.649C487.545 175.401 487.788 175.161 488.06 174.936C488.779 174.337 490.609 173.149 491.712 174.063C492.188 174.459 492.085 175.083 491.872 175.537C491.354 176.643 489.75 177.572 488.068 177.152" fill="#AB494A"/>
<path fill-rule="evenodd" clip-rule="evenodd" d="M471.4 173.167C471.4 173.167 477.249 175.433 483.162 171.051C483.385 170.886 483.373 170.626 483.138 170.47C482.9 170.315 482.527 170.322 482.304 170.488C477.09 174.353 471.964 172.445 471.964 172.445C471.68 172.336 471.322 172.41 471.165 172.609C471.01 172.808 471.116 173.058 471.4 173.167Z" fill="black"/>
<path fill-rule="evenodd" clip-rule="evenodd" d="M489.285 173.578L489.243 173.342C488.814 170.995 486.18 169.142 482.823 168.827C481.594 168.711 480.304 168.59 479.083 168.476C477.408 168.319 475.713 168.661 474.418 169.42C473.123 170.178 472.344 171.282 472.272 172.462C472.268 172.569 472.263 172.654 472.285 172.708C472.38 172.925 472.206 173.155 471.897 173.222C471.586 173.289 471.257 173.167 471.161 172.95C471.11 172.835 471.083 172.655 471.098 172.427C471.181 171.016 472.113 169.696 473.663 168.789C475.213 167.883 477.236 167.473 479.24 167.661C480.461 167.776 481.751 167.896 482.98 168.012C486.867 168.376 489.915 170.521 490.411 173.239C490.469 173.567 490.509 173.774 490.509 173.774C490.54 173.952 490.403 174.125 490.168 174.2C489.167 174.518 488.571 174.742 488.571 174.742C488.463 174.782 488.341 174.798 488.218 174.787C486.636 174.646 485.339 173.997 484.363 173.257C482.96 172.191 482.229 170.949 482.229 170.949C482.107 170.739 482.249 170.499 482.551 170.413C482.85 170.326 483.195 170.427 483.318 170.636C483.318 170.636 483.973 171.746 485.229 172.7C485.991 173.278 486.977 173.806 488.191 173.953C488.395 173.879 488.77 173.747 489.285 173.578Z" fill="black"/>
<path fill-rule="evenodd" clip-rule="evenodd" d="M473.524 180.87L473.384 182.112C473.384 182.112 473.58 182.253 473.693 182.334C475.164 183.396 477.881 184.636 482.281 184.221C482.271 184.222 484.613 184.053 487.034 182.416C487.184 182.314 487.573 182.084 487.573 182.084L487.26 181.077C487.26 181.077 487.125 181.13 486.995 181.239C484.653 183.187 482.136 183.405 482.136 183.405C482.134 183.405 482.129 183.406 482.124 183.406C477.371 183.855 474.843 182.124 473.85 181.192C473.742 181.091 473.524 180.87 473.524 180.87Z" fill="black" fill-opacity="0.7"/>
<path fill-rule="evenodd" clip-rule="evenodd" d="M406.809 268.107C406.819 268.087 406.831 268.066 406.846 268.047C407.297 267.359 408.065 266.12 408.452 265.413C408.548 265.236 408.832 265.147 409.085 265.216C409.338 265.282 409.465 265.479 409.367 265.658C408.972 266.379 408.2 267.631 407.736 268.333C407.709 268.374 407.687 268.415 407.665 268.458L406.809 268.107Z" fill="black" fill-opacity="0.55"/>
<path fill-rule="evenodd" clip-rule="evenodd" d="M489.585 186.002L488.445 185.669L488.433 187.096C488.442 187.322 488.717 187.5 489.041 187.492C489.365 187.485 489.62 187.294 489.61 187.067L489.585 186.002Z" fill="black"/>
<path fill-rule="evenodd" clip-rule="evenodd" d="M473.215 184.803L472.057 184.914L471.992 186.657C471.975 186.886 472.212 187.07 472.517 187.068C472.821 187.065 473.08 186.878 473.097 186.649L473.215 184.803Z" fill="black"/>
<path fill-rule="evenodd" clip-rule="evenodd" d="M471.264 177.146L470.767 174.243C470.938 174.357 471.112 174.494 471.289 174.654L471.699 177.041C471.561 177.091 471.402 177.124 471.264 177.146Z" fill="black"/>
<path fill-rule="evenodd" clip-rule="evenodd" d="M480.144 177.579C479.612 177.501 478.915 177.634 478.567 177.872C478.226 178.107 477.974 178.641 478.064 179C478.427 180.459 480.755 180.476 481.608 179.743C481.78 179.596 481.748 179.38 481.537 179.261C481.328 179.141 481.019 179.163 480.848 179.31C480.406 179.69 479.219 179.638 479.031 178.882C478.989 178.717 479.097 178.469 479.254 178.361C479.406 178.258 479.712 178.216 479.945 178.25C480.21 178.288 480.47 178.169 480.526 177.984C480.58 177.799 480.411 177.617 480.144 177.579Z" fill="black"/>
<path fill-rule="evenodd" clip-rule="evenodd" d="M481.653 179.785C482.21 179.306 482.247 177.921 480.189 177.621C479.927 177.582 479.667 177.701 479.61 177.886C479.554 178.072 479.726 178.253 479.99 178.292C480.758 178.404 481.03 178.776 481.008 179.086C481.001 179.193 480.964 179.291 480.893 179.352C480.721 179.499 480.753 179.715 480.964 179.834C481.175 179.954 481.484 179.931 481.653 179.785Z" fill="black"/>
<path fill-rule="evenodd" clip-rule="evenodd" d="M519.75 179.71C519.936 179.762 521.163 180.099 521.219 180.113C523.103 180.567 525.033 180.921 526.994 181.166C527.313 181.205 527.527 181.419 527.47 181.642C527.411 181.866 527.107 182.015 526.786 181.975C524.765 181.723 520.714 180.869 520.714 180.869L520.949 180.667C520.003 180.256 519.242 179.831 518.857 179.442C518.857 179.442 519.733 179.701 519.75 179.71Z" fill="black" fill-opacity="0.73"/>
<path fill-rule="evenodd" clip-rule="evenodd" d="M517.712 175.271C517.901 175.782 518.41 176.282 519.036 176.777C519.036 176.777 519.191 176.827 519.27 176.851C521.412 177.516 524.021 177.873 525.969 178.109C526.288 178.147 526.593 177.997 526.648 177.774C526.705 177.55 526.49 177.337 526.171 177.298C523.703 177 520.077 176.532 517.969 175.385C517.893 175.343 517.712 175.271 517.712 175.271Z" fill="black" fill-opacity="0.76"/>
<path fill-rule="evenodd" clip-rule="evenodd" d="M518.919 172.052C519.272 172.207 520.114 172.447 520.177 172.467C521.946 173.024 523.756 173.486 525.612 173.881C525.923 173.947 526.098 174.177 526.004 174.394C525.909 174.611 525.58 174.733 525.269 174.667C523.366 174.262 521.507 173.789 519.692 173.216C519.66 173.207 519.449 173.144 519.189 173.063C519.116 173.039 519.017 173.006 519.017 173.006C518.811 172.631 518.674 172.274 518.696 171.958C518.696 171.958 518.929 172.044 518.919 172.052Z" fill="black"/>
<path fill-rule="evenodd" clip-rule="evenodd" d="M522.246 171.807C525.272 172.028 528.347 172.785 531.415 173.052C531.739 173.081 532.033 172.921 532.072 172.695C532.112 172.47 531.884 172.265 531.562 172.237C528.485 171.968 525.402 171.211 522.371 170.989C522.047 170.965 521.758 171.129 521.723 171.355C521.689 171.581 521.924 171.783 522.246 171.807Z" fill="black"/>
<path fill-rule="evenodd" clip-rule="evenodd" d="M524.092 184.069L524.386 185.296C524.386 185.296 529.928 186.253 533.157 185.805C533.547 185.751 533.805 185.487 533.721 185.184C533.637 184.881 533.251 184.667 532.857 184.706C529.954 184.998 524.092 184.069 524.092 184.069Z" fill="black"/>
<path fill-rule="evenodd" clip-rule="evenodd" d="M478.328 165.736C478.35 165.725 478.373 165.715 478.398 165.707C478.631 165.634 478.93 165.724 479.068 165.907C479.162 166.036 479.163 166.15 479.094 166.253C479.055 166.311 478.968 166.386 478.808 166.422C478.665 166.454 478.365 166.456 478.349 166.456C477.924 166.453 477.493 166.411 477.063 166.348C476.794 166.308 476.586 166.119 476.597 165.926C476.608 165.733 476.836 165.608 477.104 165.648C477.469 165.702 477.838 165.739 478.2 165.741L478.328 165.736ZM478.167 166.034C478.172 166.073 478.189 166.112 478.219 166.153C478.19 166.114 478.175 166.073 478.167 166.034Z" fill="#88C9D3"/>
<path fill-rule="evenodd" clip-rule="evenodd" d="M478.039 165.476C478.018 165.437 478.001 165.404 477.991 165.38C477.595 164.483 476.812 163.553 475.915 162.832C475.767 162.712 475.609 162.597 475.441 162.491C475.228 162.357 475.177 162.137 475.328 162C475.478 161.863 475.774 161.86 475.986 161.995C476.192 162.123 476.384 162.265 476.566 162.411C477.57 163.219 478.445 164.261 478.888 165.266C478.953 165.416 479.208 165.862 479.271 166.182C479.322 166.43 479.251 166.623 479.115 166.726C478.979 166.829 478.79 166.858 478.554 166.778C478.479 166.752 478.385 166.704 478.295 166.64C478.2 166.574 478.101 166.481 478.074 166.459C477.911 166.325 477.75 166.187 477.585 166.053C477.607 166.099 477.618 166.147 477.616 166.195C477.605 166.383 477.385 166.504 477.123 166.466C476.035 166.305 474.732 165.962 473.827 165.392C473.638 165.272 473.342 165.065 473.163 164.851C472.983 164.633 472.916 164.408 473.008 164.21C473.107 163.995 473.361 163.877 473.701 163.85C474.02 163.823 474.422 163.884 474.649 163.928C475.726 164.131 476.83 164.638 477.678 165.214C477.802 165.298 477.922 165.386 478.039 165.476ZM477.271 165.81C477.214 165.769 477.158 165.728 477.098 165.689C476.385 165.204 475.461 164.771 474.555 164.599C474.429 164.575 474.222 164.538 474.035 164.537C474.007 164.537 473.971 164.541 473.941 164.544C473.96 164.567 473.981 164.596 474.001 164.615C474.116 164.729 474.271 164.831 474.375 164.896C475.136 165.378 476.246 165.649 477.163 165.785C477.201 165.79 477.236 165.799 477.271 165.81Z" fill="#88C9D3"/>
<path fill-rule="evenodd" clip-rule="evenodd" d="M475.524 162.468C475.528 162.499 475.533 162.529 475.542 162.556C475.607 162.779 475.732 163.03 475.845 163.186C476.058 163.485 476.315 163.768 476.586 164.044C476.987 164.455 477.429 164.846 477.897 165.22C478.082 165.367 478.093 165.581 477.922 165.696C477.75 165.811 477.459 165.785 477.274 165.637C476.776 165.239 476.305 164.821 475.875 164.384C475.573 164.075 475.29 163.759 475.05 163.426C474.846 163.138 474.604 162.615 474.589 162.271C474.578 162.017 474.694 161.838 474.866 161.754C475 161.69 475.176 161.66 475.417 161.711C475.597 161.748 475.85 161.847 476.174 162.055C476.383 162.185 476.432 162.4 476.286 162.535C476.141 162.669 475.855 162.672 475.648 162.54C475.608 162.515 475.566 162.49 475.524 162.468Z" fill="#88C9D3"/>
<path fill-rule="evenodd" clip-rule="evenodd" d="M517.369 121.598C517.369 121.598 453.792 103.545 405.842 117.638L413.867 121.908L399.285 130.622C399.285 130.622 489.207 129.68 519.742 138.978L517.369 121.598Z" fill="#88C9D3"/>
<path fill-rule="evenodd" clip-rule="evenodd" d="M525.814 185.525C526.785 185.735 529.476 185.836 532.065 185.762L533.311 191.708L526.68 192.02L525.814 185.525ZM523.487 171.113L515.75 120.428L521.478 120.437L530.101 172.087L523.487 171.113Z" fill="#224D99"/>
<path fill-rule="evenodd" clip-rule="evenodd" d="M307.377 224.126L364.77 223.945C364.77 223.945 403.65 295.55 394.883 341.178H357.82L335.554 246.914L313.291 341.178H276.226C267.46 295.55 307.377 224.126 307.377 224.126Z" fill="#224D99"/>
<path fill-rule="evenodd" clip-rule="evenodd" d="M376.107 247.516L361.576 239.092C361.066 238.799 360.993 238.273 361.415 237.917C361.834 237.56 362.587 237.509 363.097 237.804L374.878 244.414L376.107 247.516ZM297.496 243.893L312.198 236.625C312.737 236.36 313.485 236.449 313.866 236.825C314.247 237.201 314.119 237.723 313.58 237.989L296.315 246.525L297.496 243.893ZM300.009 238.294C300.79 237.915 301.499 237.564 301.96 237.317C305.482 235.434 309.868 232.983 309.868 232.983C310.384 232.695 311.137 232.754 311.55 233.113C311.962 233.475 311.878 234.001 311.363 234.288C311.363 234.288 306.955 236.752 303.414 238.645C302.406 239.184 300.432 240.138 298.848 240.88L300.009 238.294ZM373.319 240.914L361.944 234.371C361.437 234.076 361.368 233.548 361.79 233.194C362.212 232.839 362.967 232.791 363.475 233.086L371.842 237.766L372.934 240.188L373.319 240.914Z" fill="#628DDF"/>
<path fill-rule="evenodd" clip-rule="evenodd" d="M276.125 340.545L277.248 349.626C277.248 349.626 268.92 350.383 268.18 354.101L311.043 352.79L313.393 341.08L276.125 340.545Z" fill="#FFD274"/>
<path fill-rule="evenodd" clip-rule="evenodd" d="M311.124 352.257L268.721 353.425C268.268 353.439 267.916 353.708 267.935 354.025C267.955 354.342 268.34 354.587 268.793 354.573L310.98 353.401L311.124 352.257Z" fill="#224D99"/>
<path fill-rule="evenodd" clip-rule="evenodd" d="M394.774 340.831L393.651 349.912C393.651 349.912 401.979 350.669 402.72 354.386L359.857 353.076L357.507 341.365L394.774 340.831Z" fill="#FFD274"/>
<path fill-rule="evenodd" clip-rule="evenodd" d="M359.965 353.587L401.999 354.854C402.453 354.868 402.838 354.622 402.857 354.305C402.877 353.988 402.526 353.72 402.073 353.705L359.7 352.485L359.965 353.587Z" fill="#224D99"/>
<path fill-rule="evenodd" clip-rule="evenodd" d="M373.849 228.773C382.929 243.176 391.669 257.673 395.237 268.739C395.237 268.739 397.748 269.334 397.417 264.308C397.417 264.308 397.485 258.662 399.961 259.436C399.961 259.436 407.017 265.906 407.526 274.211C407.526 274.211 410.308 275.761 410.582 270.615C410.582 270.615 412.142 269.558 411.882 267.633C411.882 267.633 413.354 265.995 413.16 264.308C413.16 264.308 415.355 263.069 414.924 258.821C414.496 254.591 397.369 228.804 394.844 224.288L373.849 228.773Z" fill="#4B0000"/>
<path fill-rule="evenodd" clip-rule="evenodd" d="M326.031 171.205C326.426 169.68 327.108 168.313 327.799 167.203C328.923 165.428 331.449 164.288 334.227 164.303C336.069 164.313 337.746 164.536 339.448 164.549C341.553 164.561 343.895 165.257 344.652 166.628C345.685 168.502 346.001 170.428 345.986 172.102C346.205 171.983 346.448 171.882 346.7 171.807C347.742 171.493 348.841 171.843 349.204 172.603C349.901 174.062 347.524 176.151 345.288 176.189C345.246 176.309 345.204 176.415 345.167 176.509C344.694 177.683 344.12 178.347 344.12 178.347L344.184 182.969L352.13 183.964C331.677 196.125 321.617 183.964 321.617 183.964H327.228L327.316 179.307C325.769 177.371 325.609 175.142 325.673 173.684C325.516 173.799 325.344 173.905 325.148 173.994C323.88 174.565 322.704 174.172 322.019 173.306C321.248 172.332 320.991 170.937 322.021 170.003C323.12 169.006 324.604 169.549 325.443 170.416C325.683 170.663 325.874 170.929 326.031 171.205Z" fill="#4B0000"/>
<path fill-rule="evenodd" clip-rule="evenodd" d="M326.251 170.283C326.251 170.283 332.058 169.303 332.747 166.295C332.747 166.295 337.753 168.445 342.606 166.7C342.606 166.7 342.849 171.658 346.113 172.299C346.113 172.299 346.145 169.977 346.172 167.849C346.196 165.925 344.016 164.34 341.262 164.28C338.363 164.217 334.724 164.138 331.867 164.076C329.203 164.018 326.932 165.41 326.668 167.261C326.442 168.837 326.226 170.37 326.251 170.283Z" fill="black"/>
<path fill-rule="evenodd" clip-rule="evenodd" d="M275.552 224.288C275.552 224.288 260.326 257.442 257.231 264.179C256.68 265.38 257.473 266.68 259.093 267.235C259.093 267.235 259.093 267.235 259.093 267.235C259.368 268.051 260.267 269.428 261.944 269.58C262.143 270.396 263.146 271.674 264.733 271.864C264.733 271.864 265.105 272.374 265.604 273.061C266.008 273.616 266.863 273.942 267.751 273.875C268.639 273.81 269.377 273.366 269.605 272.763H269.606C271.905 273.765 272.54 273.395 274.135 270.488C281.277 257.466 289.952 242.402 298.853 228.728L275.552 224.288Z" fill="#4B0000"/>
<path fill-rule="evenodd" clip-rule="evenodd" d="M268.834 273.417L270.762 268.763C270.874 268.491 271.282 268.333 271.673 268.412C272.063 268.491 272.288 268.777 272.175 269.049L270.474 273.155C269.958 272.979 269.671 272.751 269.671 272.751C269.531 273.051 269.204 273.265 268.834 273.417Z" fill="#A54C36"/>
<path fill-rule="evenodd" clip-rule="evenodd" d="M327.354 179.166C327.709 179.523 328.151 179.841 328.609 180.134C330.191 181.143 331.915 182.108 334.11 182.271C336.111 182.42 338.046 181.979 339.765 181.221C341.455 180.475 342.936 179.424 344.067 178.299L344.118 179.6C343.054 180.49 341.789 181.3 340.393 181.916C338.448 182.774 336.251 183.257 333.985 183.089C331.535 182.907 329.58 181.868 327.815 180.741C327.646 180.632 327.476 180.519 327.312 180.403L327.354 179.166Z" fill="#A54C36"/>
<path fill-rule="evenodd" clip-rule="evenodd" d="M334.384 174.379C333.435 174.279 332.442 174.531 332.066 175.059C331.784 175.451 331.833 176.143 332.295 176.497C332.868 176.938 333.925 177.191 334.781 177.099C335.439 177.028 335.976 176.771 336.187 176.296C336.267 176.115 336.12 175.923 335.863 175.867C335.605 175.812 335.328 175.913 335.25 176.094C335.159 176.297 334.911 176.392 334.629 176.422C334.077 176.482 333.391 176.322 333.02 176.037C332.92 175.959 332.881 175.84 332.866 175.723C332.851 175.593 332.876 175.46 332.942 175.365C333.148 175.078 333.722 175.002 334.239 175.056C334.507 175.084 334.757 174.955 334.796 174.768C334.838 174.581 334.651 174.407 334.384 174.379Z" fill="#A54C36"/>
<path fill-rule="evenodd" clip-rule="evenodd" d="M336.138 176.336C336.342 175.878 336.268 175.501 336.05 175.204C335.729 174.766 335.059 174.494 334.336 174.418C334.068 174.39 333.818 174.519 333.779 174.706C333.737 174.893 333.924 175.068 334.191 175.096C334.598 175.138 334.995 175.27 335.179 175.518C335.297 175.679 335.312 175.884 335.201 176.133C335.12 176.314 335.265 176.506 335.525 176.562C335.783 176.618 336.057 176.516 336.138 176.336Z" fill="#A54C36"/>
<path fill-rule="evenodd" clip-rule="evenodd" d="M326.034 171.249L325.664 170.701C325.664 170.701 325.659 170.739 325.656 170.759C325.536 171.574 325.186 174.003 325.186 174.003C325.369 173.914 325.539 173.815 325.683 173.688C325.683 173.688 325.921 172.043 326.027 171.318C326.029 171.289 326.034 171.249 326.034 171.249Z" fill="#A54C36"/>
<path fill-rule="evenodd" clip-rule="evenodd" d="M346.077 172.075C346.223 171.965 346.379 171.885 346.54 171.817C346.54 171.817 346.541 172.341 346.535 172.429C346.464 173.673 345.785 176.103 345.785 176.103C345.61 176.159 345.432 176.178 345.254 176.187C345.254 176.187 345.962 173.732 346.036 172.443C346.037 172.401 346.042 172.358 346.044 172.313C346.048 172.258 346.077 172.075 346.077 172.075Z" fill="#A54C36"/>
<path fill-rule="evenodd" clip-rule="evenodd" d="M327.225 183.555L327.249 185.661C327.252 185.945 326.925 186.177 326.518 186.179C326.111 186.181 325.78 185.953 325.778 185.669L325.758 183.93L327.198 183.888L327.225 183.555Z" fill="#A54C36"/>
<path fill-rule="evenodd" clip-rule="evenodd" d="M344.182 182.984L345.651 183.154L345.632 184.603C345.629 184.887 345.296 185.115 344.889 185.112C344.484 185.11 344.158 184.877 344.16 184.594L344.182 182.984Z" fill="#A54C36"/>
<path fill-rule="evenodd" clip-rule="evenodd" d="M410.266 272.765C410.193 272.686 410.146 272.592 410.146 272.491C410.1 270.288 409.781 268.208 409.011 266.065C408.449 264.503 407.316 262.536 406.983 261.13C406.916 260.849 407.189 260.585 407.588 260.539C407.988 260.493 408.368 260.681 408.434 260.962C408.763 262.346 409.886 264.278 410.438 265.815C410.916 267.15 411.228 268.458 411.412 269.786C411.215 270.072 410.953 270.358 410.602 270.618C410.602 270.618 410.644 271.864 410.266 272.765ZM411.848 268.845C411.647 266.941 411.264 265.114 410.632 263.216C410.372 262.43 410.105 261.644 409.822 260.861C409.727 260.601 409.629 260.34 409.516 260.083C409.484 260.006 409.359 259.864 409.32 259.78C409.258 259.646 409.268 259.533 409.293 259.46C409.344 259.304 409.467 259.194 409.636 259.122C409.769 259.064 409.975 259.004 410.276 259.066C410.61 259.134 410.821 259.354 410.803 259.585C410.853 259.657 410.906 259.742 410.926 259.785C411.044 260.058 411.149 260.333 411.25 260.609C411.534 261.399 411.802 262.19 412.066 262.983C412.415 264.028 412.687 265.053 412.9 266.079C412.724 266.55 412.425 267.071 411.934 267.591C411.934 267.591 412.042 268.141 411.848 268.845ZM413.283 264.184C413.114 263.417 412.915 262.655 412.682 261.904C412.331 260.758 411.625 259.552 411.451 258.389C411.407 258.108 411.701 257.855 412.106 257.826C412.508 257.796 412.871 258 412.913 258.283C413.082 259.41 413.781 260.577 414.122 261.687C414.232 262.046 414.335 262.408 414.433 262.771C414.252 263.23 413.908 263.842 413.283 264.184ZM409.923 260.063H409.925L409.913 260.061L409.923 260.063ZM409.896 260.059L409.862 260.052C409.874 260.054 409.886 260.058 409.896 260.059Z" fill="#A54C36"/>
<path fill-rule="evenodd" clip-rule="evenodd" d="M290.74 226.846C290.731 226.836 290.722 226.827 290.714 226.817C290.292 226.332 290.513 225.7 291.207 225.406L295.635 223.523C296.329 223.228 297.235 223.383 297.657 223.867C298.079 224.352 297.858 224.984 297.164 225.279L292.736 227.162C292.707 227.173 292.678 227.185 292.648 227.196L290.74 226.846ZM379.566 227.088L379.382 224.321C379.345 223.754 379.973 223.273 380.784 223.247C381.596 223.22 382.283 223.66 382.322 224.225L382.469 226.466L379.566 227.088ZM309.148 224.181C309.07 224.008 309.055 223.819 309.12 223.631L310.32 220.109C310.508 219.557 311.302 219.216 312.092 219.348C312.882 219.479 313.371 220.034 313.183 220.585L311.983 224.107C311.979 224.119 311.974 224.131 311.969 224.143L309.148 224.181ZM321.415 224.145L324.22 221.964C324.762 221.543 325.693 221.508 326.297 221.887C326.9 222.267 326.949 222.917 326.407 223.34L325.438 224.092L321.415 224.145ZM343.267 224.045L342.971 223.742C342.512 223.273 342.684 222.634 343.356 222.314C344.025 221.993 344.942 222.113 345.401 222.581L346.789 223.999L343.267 224.045ZM357.783 224.023C357.744 224.001 357.702 223.975 357.666 223.948C357.094 223.545 357.099 222.894 357.675 222.495L361.356 219.946C361.935 219.547 362.867 219.55 363.439 219.953C364.01 220.356 364.005 221.008 363.429 221.407L359.745 223.955C359.723 223.97 359.701 223.986 359.679 223.999L357.783 224.023ZM276.809 220.611L279.247 220.863C280.05 220.947 280.606 221.469 280.487 222.031C280.368 222.591 279.619 222.98 278.816 222.898L275.704 222.576L276.809 220.611ZM370.05 218.3L370.7 221.892C370.801 222.456 371.536 222.855 372.343 222.785C373.148 222.713 373.719 222.199 373.619 221.635L372.971 218.043C372.871 217.481 372.132 217.082 371.328 217.152C370.521 217.222 369.95 217.738 370.05 218.3ZM391.73 220.637L387.063 219.057C386.332 218.81 385.451 219.025 385.098 219.535C384.743 220.046 385.049 220.661 385.78 220.907L390.445 222.487C391.175 222.733 392.058 222.519 392.411 222.009C392.765 221.498 392.46 220.883 391.73 220.637ZM289.656 219.775L288.084 216.325C287.837 215.785 287.009 215.485 286.235 215.658C285.461 215.83 285.033 216.409 285.28 216.948L286.852 220.398C287.099 220.94 287.927 221.238 288.701 221.067C289.475 220.895 289.903 220.316 289.656 219.775ZM332.067 220.481L337.215 220.904C338.022 220.971 338.755 220.568 338.848 220.004C338.944 219.441 338.368 218.929 337.561 218.864L332.413 218.439C331.606 218.374 330.873 218.776 330.777 219.34C330.684 219.903 331.26 220.414 332.067 220.481ZM352.415 216.488L347.564 217.766C346.804 217.966 346.421 218.56 346.708 219.091C346.993 219.621 347.844 219.89 348.604 219.689L353.452 218.411C354.213 218.211 354.598 217.618 354.311 217.087C354.024 216.556 353.175 216.289 352.415 216.488ZM320.403 214.18L317.996 217.387C317.619 217.889 317.897 218.511 318.616 218.774C319.336 219.038 320.226 218.843 320.603 218.341L323.009 215.134C323.387 214.632 323.109 214.011 322.39 213.747C321.67 213.483 320.78 213.678 320.403 214.18ZM301.655 215.862L296.574 216.582C295.778 216.693 295.263 217.236 295.424 217.793C295.585 218.348 296.363 218.709 297.158 218.596L302.239 217.877C303.035 217.766 303.55 217.222 303.389 216.666C303.228 216.109 302.45 215.749 301.655 215.862ZM382.168 213.161L377.957 215.271C377.297 215.602 377.145 216.246 377.618 216.707C378.092 217.168 379.011 217.272 379.671 216.942L383.884 214.831C384.544 214.5 384.694 213.858 384.22 213.397C383.747 212.936 382.827 212.83 382.168 213.161ZM339.309 211.588L339.937 215.182C340.038 215.746 340.771 216.147 341.578 216.078C342.385 216.01 342.958 215.496 342.86 214.934L342.23 211.34C342.132 210.776 341.396 210.376 340.592 210.444C339.785 210.513 339.211 211.026 339.309 211.588ZM357.994 210.391L359.444 213.867C359.672 214.411 360.488 214.725 361.268 214.566C362.048 214.408 362.497 213.836 362.271 213.291L360.819 209.815C360.594 209.271 359.775 208.959 358.995 209.116C358.215 209.276 357.766 209.846 357.994 210.391ZM327.773 210.423L330.319 213.577C330.716 214.072 331.616 214.247 332.322 213.968C333.031 213.69 333.281 213.063 332.881 212.568L330.338 209.414C329.939 208.919 329.041 208.745 328.332 209.022C327.626 209.301 327.376 209.928 327.773 210.423ZM282.448 210.588L284.098 209.486C284.685 209.094 285.618 209.108 286.179 209.517C286.74 209.927 286.72 210.579 286.133 210.97L282.388 213.474C281.931 213.781 281.262 213.839 280.723 213.654L282.448 210.588ZM309.052 210.509L312.968 212.88C313.582 213.252 314.512 213.205 315.044 212.777C315.576 212.349 315.51 211.7 314.896 211.328L310.979 208.955C310.366 208.584 309.436 208.63 308.904 209.058C308.372 209.488 308.438 210.137 309.052 210.509ZM297.925 208.447L294.181 210.949C293.594 211.342 293.573 211.993 294.135 212.402C294.696 212.813 295.629 212.827 296.215 212.435L299.96 209.932C300.547 209.54 300.567 208.887 300.006 208.477C299.444 208.068 298.512 208.054 297.925 208.447ZM372.539 209.658L367.576 208.613C366.798 208.448 365.977 208.757 365.744 209.3C365.508 209.843 365.95 210.417 366.727 210.581L371.691 211.626C372.468 211.789 373.29 211.482 373.523 210.939C373.758 210.396 373.317 209.822 372.539 209.658ZM350.63 206.154L347.38 208.976C346.87 209.418 346.971 210.065 347.603 210.42C348.236 210.776 349.163 210.706 349.673 210.264L352.923 207.443C353.43 207.001 353.33 206.353 352.697 205.998C352.064 205.642 351.137 205.712 350.63 206.154ZM386.582 208.26C386.229 208.698 385.456 208.901 384.765 208.712L379.936 207.397C379.181 207.189 378.805 206.593 379.1 206.065C379.396 205.537 380.25 205.275 381.005 205.481L385.78 206.782L386.582 208.26ZM320.836 204.247L316.014 205.576C315.259 205.785 314.888 206.382 315.186 206.91C315.484 207.438 316.34 207.696 317.095 207.489L321.916 206.159C322.672 205.95 323.043 205.353 322.745 204.825C322.447 204.297 321.591 204.038 320.836 204.247ZM336.874 202.071L334.726 205.366C334.39 205.882 334.716 206.492 335.454 206.727C336.195 206.963 337.068 206.734 337.404 206.218L339.552 202.922C339.888 202.406 339.562 201.796 338.821 201.561C338.083 201.326 337.21 201.554 336.874 202.071ZM286.796 202.862L289.892 203.595C290.661 203.777 291.074 204.361 290.813 204.898C290.553 205.436 289.716 205.724 288.947 205.542L285.718 204.777L286.796 202.862ZM302.96 204.064L302.166 200.486C302.041 199.926 301.289 199.541 300.486 199.628C299.684 199.715 299.133 200.24 299.258 200.801L300.051 204.379C300.176 204.94 300.928 205.324 301.731 205.237C302.533 205.15 303.084 204.625 302.96 204.064ZM357.572 203.568L362.639 204.336C363.431 204.456 364.216 204.104 364.388 203.549C364.562 202.995 364.057 202.447 363.262 202.327L358.198 201.559C357.403 201.439 356.618 201.791 356.447 202.345C356.275 202.9 356.78 203.447 357.572 203.568ZM324.318 200.055L327.214 203.058C327.668 203.529 328.582 203.654 329.257 203.337C329.929 203.02 330.108 202.381 329.654 201.91L326.76 198.907C326.307 198.437 325.389 198.312 324.717 198.629C324.043 198.946 323.864 199.585 324.318 200.055ZM372.824 202.013L371.772 198.467C371.608 197.912 370.828 197.554 370.031 197.67C369.236 197.785 368.726 198.329 368.89 198.885L369.942 202.43C370.107 202.985 370.887 203.343 371.681 203.228C372.476 203.113 372.988 202.568 372.824 202.013ZM348.118 201.174L349.803 197.749C350.066 197.213 349.656 196.627 348.888 196.443C348.121 196.259 347.282 196.545 347.02 197.082L345.335 200.506C345.072 201.042 345.482 201.628 346.25 201.812C347.017 201.996 347.856 201.71 348.118 201.174ZM315.047 200.839L315.588 197.238C315.672 196.673 315.085 196.167 314.278 196.108C313.47 196.049 312.746 196.459 312.661 197.023L312.12 200.624C312.035 201.188 312.622 201.694 313.43 201.753C314.237 201.813 314.962 201.403 315.047 200.839ZM380.117 196.373L381.974 199.784L381.694 200.667C381.52 201.221 380.733 201.571 379.941 201.449C379.149 201.327 378.646 200.778 378.82 200.224L379.936 196.689C379.973 196.574 380.034 196.468 380.117 196.373ZM334.034 193.426L331.888 196.721C331.552 197.238 331.878 197.848 332.617 198.083C333.357 198.318 334.23 198.089 334.566 197.573L336.715 194.278C337.051 193.761 336.722 193.151 335.984 192.916C335.246 192.681 334.373 192.91 334.034 193.426ZM290.725 195.879L294.333 194.025C294.987 193.689 295.909 193.787 296.39 194.244C296.872 194.701 296.731 195.344 296.077 195.681L291.902 197.826C291.248 198.162 290.326 198.064 289.845 197.608C289.824 197.588 289.805 197.568 289.786 197.547L290.725 195.879ZM306.877 196.012L306.75 192.393C306.73 191.826 306.054 191.376 305.242 191.39C304.431 191.404 303.788 191.876 303.808 192.443L303.935 196.063C303.955 196.63 304.631 197.079 305.443 197.065C306.254 197.051 306.897 196.579 306.877 196.012ZM359.924 196.518L363.309 193.775C363.838 193.345 363.767 192.695 363.152 192.325C362.536 191.955 361.607 192.004 361.077 192.433L357.695 195.177C357.165 195.607 357.234 196.256 357.849 196.627C358.465 196.997 359.395 196.948 359.924 196.518ZM319.138 192.703L323.459 194.703C324.136 195.016 325.051 194.886 325.5 194.413C325.946 193.941 325.762 193.302 325.085 192.989L320.763 190.989C320.086 190.676 319.172 190.806 318.724 191.279C318.276 191.752 318.461 192.39 319.138 192.703ZM343.157 188.071C343.37 188.246 343.503 188.473 343.51 188.722L343.591 192.342C343.603 192.909 342.956 193.377 342.144 193.386C341.332 193.395 340.663 192.942 340.648 192.375C340.648 192.375 340.567 188.799 340.57 188.784C341.458 188.606 342.323 188.313 343.157 188.071ZM353.916 191.502L352.077 188.117C351.79 187.587 350.939 187.319 350.178 187.521C349.421 187.722 349.038 188.316 349.325 188.846L351.164 192.232C351.451 192.762 352.302 193.029 353.062 192.828C353.82 192.627 354.203 192.033 353.916 191.502ZM373.202 188.846C373.932 189.305 374.624 189.796 375.269 190.316L371.556 192.508C370.938 192.874 370.009 192.82 369.484 192.386C368.959 191.953 369.037 191.304 369.658 190.938L373.202 188.846ZM324.703 186.548C326.537 187.66 327.717 188.039 329.568 188.668L330.316 189.292C330.843 189.723 330.772 190.372 330.157 190.742C329.541 191.111 328.612 191.062 328.082 190.631L324.705 187.884C324.217 187.485 324.205 186.926 324.703 186.548ZM299.645 186.939L301.085 187.432C301.814 187.682 302.116 188.298 301.758 188.807C301.401 189.317 300.518 189.527 299.789 189.278L297.017 188.328C297.831 187.811 298.71 187.346 299.645 186.939ZM313.962 184.997L309.426 186.75C308.715 187.024 308.457 187.65 308.85 188.147C309.243 188.643 310.139 188.823 310.85 188.549L315.386 186.796C316.097 186.522 316.354 185.896 315.961 185.4C315.568 184.903 314.672 184.723 313.962 184.997ZM363.036 185.083C364.066 185.261 365.069 185.486 366.045 185.754C366.163 186.293 365.656 186.808 364.883 186.918L359.804 187.639C359.007 187.752 358.232 187.392 358.07 186.836C357.908 186.281 358.423 185.737 359.218 185.624L363.036 185.083Z" fill="#FFD274"/>
<path fill-rule="evenodd" clip-rule="evenodd" d="M301.894 185.837C302.633 185.646 312.782 183.374 321.473 183.927C321.589 183.935 321.556 183.939 321.556 183.939L322.661 185.023C322.661 185.023 321.372 184.953 321.224 184.943C312.525 184.416 302.372 186.809 302.372 186.809L302.281 186.829C300.871 187.061 299.464 187.759 298.055 188.781C295.808 190.409 293.597 192.851 291.491 195.701C284.013 205.815 277.917 221.031 276.772 223.973L298.274 227.746L307.902 207.827C308.019 207.586 308.37 207.442 308.729 207.486C309.087 207.531 309.345 207.752 309.335 208.006L308.899 224.19L307.428 224.163L307.73 211.397L299.451 228.524C299.328 228.779 298.947 228.923 298.574 228.858L275.688 224.843C275.498 224.809 275.334 224.723 275.234 224.605C275.134 224.487 275.106 224.346 275.156 224.212C275.156 224.212 281.814 206.549 290.183 195.229C292.365 192.278 294.668 189.755 296.995 188.068C298.618 186.891 300.269 186.114 301.894 185.837Z" fill="#FFD274"/>
<path fill-rule="evenodd" clip-rule="evenodd" d="M394.315 223.974C392.076 218.17 388.398 213.172 384.697 205.238C383.753 203.22 382.239 200.258 380.663 197.235C377.165 190.327 368.116 185.535 357.649 185.05C354.299 184.895 350.54 184.88 350.54 184.88C351.04 184.592 351.54 184.301 352.04 184.002C352.04 184.002 354.424 183.882 357.747 184.024C368.805 184.497 378.357 189.597 382.046 196.888C383.63 199.919 385.148 202.893 386.095 204.919C389.913 213.102 393.7 218.172 395.921 224.204C396.022 224.474 395.794 224.75 395.409 224.825L373.99 229.031C373.624 229.103 373.239 228.968 373.104 228.719L363.861 211.896L364.707 223.962L363.25 223.96L361.931 208.329C361.899 208.074 362.142 207.841 362.5 207.784C362.856 207.726 363.221 207.861 363.351 208.099L374.237 227.914L394.315 223.974Z" fill="#FFD274"/>
<path fill-rule="evenodd" clip-rule="evenodd" d="M404.199 262.716C404.952 262.13 404.907 261.244 404.098 260.738C403.289 260.233 402.02 260.298 401.267 260.884L397.867 263.53C397.114 264.115 397.16 265.001 397.969 265.506C398.778 266.012 400.046 265.947 400.799 265.362L404.199 262.716Z" fill="#AB494A"/>
<path fill-rule="evenodd" clip-rule="evenodd" d="M406.815 264.373C407.568 263.787 407.523 262.9 406.714 262.395C405.905 261.889 404.636 261.955 403.884 262.541L400.483 265.187C399.73 265.772 399.776 266.658 400.585 267.163C401.394 267.669 402.662 267.604 403.414 267.019L406.815 264.373Z" fill="#AB494A"/>
<path fill-rule="evenodd" clip-rule="evenodd" d="M409.432 265.972C410.185 265.387 410.14 264.5 409.331 263.995C408.522 263.489 407.254 263.555 406.501 264.141L403.1 266.786C402.347 267.372 402.393 268.258 403.202 268.763C404.011 269.269 405.279 269.204 406.032 268.618L409.432 265.972Z" fill="#AB494A"/>
<path fill-rule="evenodd" clip-rule="evenodd" d="M411.968 267.572C412.72 266.986 412.675 266.1 411.867 265.594C411.058 265.089 409.789 265.154 409.036 265.74L405.636 268.386C404.883 268.972 404.929 269.857 405.738 270.363C406.547 270.868 407.814 270.803 408.567 270.218L411.968 267.572Z" fill="#AB494A"/>
<path fill-rule="evenodd" clip-rule="evenodd" d="M404.711 262.02C404.78 261.767 404.727 261.489 404.563 261.193L398.876 265.823C399.231 265.91 399.638 265.879 400.04 265.823L404.711 262.02Z" fill="black"/>
<path fill-rule="evenodd" clip-rule="evenodd" d="M402.065 267.483L402.638 267.477C402.523 267.684 402.461 267.877 402.591 268.026L407.278 264.183L407.901 263.713L407.225 263.784C407.324 263.597 407.351 263.418 407.287 263.25L402.065 267.483Z" fill="black"/>
<path fill-rule="evenodd" clip-rule="evenodd" d="M405.101 269.173C405.066 269.441 405.125 269.702 405.324 269.922L410.837 265.51L411.069 265.308C410.725 265.248 410.358 265.231 409.963 265.272L405.101 269.173Z" fill="black"/>
<path fill-rule="evenodd" clip-rule="evenodd" d="M164.639 217.165C164.639 217.165 112.851 304.257 130.206 344.981L130.379 349.02L120.779 351.201L163.33 349.087L187.71 244.654L212.952 351.079L255.36 351.451C255.36 351.451 247.311 347.835 245.68 348.327C245.68 348.327 260.559 298.681 214.662 217.614L213.604 206.585L245.825 254.99L268.3 248.188C268.3 248.188 238.254 197.43 230.223 190.118C230.223 190.118 217.325 181.221 206.577 183.563L181.391 181.165C181.391 181.165 162.655 180.71 156.903 186.215L138.625 205.315L139.298 200.622L119.584 197.373C119.584 197.373 106.743 220.339 115.338 228.161C115.338 228.161 126.433 236.121 136.347 233.007C136.347 233.007 159.581 214.075 166.53 207.798L164.639 217.165Z" fill="white"/>
<path fill-rule="evenodd" clip-rule="evenodd" d="M214.587 216.461L214.7 217.635C249.986 279.96 249.349 323.713 247.169 340.608L210.354 339.99L187.748 244.675L165.672 339.24L128.156 338.609C117.909 295.836 164.677 217.186 164.677 217.186L214.587 216.461Z" fill="#EF7B58"/>
<path fill-rule="evenodd" clip-rule="evenodd" d="M164.491 218.172C161.231 223.771 120.747 294.468 129.142 338.408C129.202 338.723 128.885 339.012 128.435 339.053C127.985 339.096 127.571 338.873 127.511 338.56C118.723 292.565 163.178 217.378 163.178 217.378C163.305 217.164 163.605 217.024 163.937 217.024L214.969 216.347C215.313 216.347 215.619 216.496 215.739 216.721C215.739 216.721 256.717 292.985 247.932 338.973C247.871 339.288 247.456 339.509 247.008 339.466C246.556 339.425 246.24 339.136 246.301 338.82C254.689 294.921 217.422 223.261 214.395 217.497L164.491 218.172Z" fill="#FD4B3C"/>
<path fill-rule="evenodd" clip-rule="evenodd" d="M187.787 247.659L166.271 339.047C166.198 339.361 165.774 339.573 165.327 339.522C164.879 339.47 164.575 339.174 164.648 338.862L186.975 244.022C187.041 243.744 187.385 243.541 187.787 243.541C188.192 243.541 188.535 243.744 188.599 244.022L210.864 338.816C210.938 339.129 210.634 339.426 210.185 339.477C209.736 339.529 209.314 339.316 209.241 339.003L187.787 247.659Z" fill="#FD4B3C"/>
<path fill-rule="evenodd" clip-rule="evenodd" d="M225.333 340.781L227.591 325.312C227.673 324.747 228.396 324.335 229.204 324.394C230.012 324.45 230.601 324.956 230.519 325.519L228.29 340.791L225.333 340.781ZM219.428 340.762C219.424 340.709 219.426 340.655 219.433 340.601L221.886 323.798C221.969 323.234 222.691 322.821 223.499 322.879C224.307 322.938 224.896 323.441 224.814 324.007L222.367 340.77L219.428 340.762ZM164.167 336.656L146.458 329.457C145.756 329.171 145.518 328.543 145.926 328.051C146.335 327.561 147.237 327.395 147.938 327.681L164.728 334.506L164.167 336.656ZM165.292 332.349L150.786 326.453C150.085 326.167 149.846 325.538 150.255 325.046C150.663 324.556 151.565 324.39 152.267 324.676L165.853 330.199L165.292 332.349ZM247.211 319.775C247.287 321.598 247.319 323.313 247.316 324.92L245.908 327.265C245.594 327.787 244.731 328.034 243.982 327.815C243.233 327.595 242.88 326.992 243.194 326.47L247.211 319.775ZM246.464 310.367C246.646 311.947 246.794 313.471 246.913 314.938L241.081 324.656C240.767 325.18 239.904 325.427 239.155 325.207C238.406 324.988 238.053 324.385 238.367 323.861L246.464 310.367ZM204.736 318.622L216.213 315.931C216.982 315.751 217.818 316.041 218.076 316.579C218.334 317.117 217.919 317.701 217.149 317.881L205.227 320.676L204.736 318.622ZM127.671 317.416L139.03 311.772C139.692 311.443 140.612 311.553 141.082 312.015C141.553 312.476 141.398 313.119 140.736 313.447L127.506 320.022C127.553 319.154 127.608 318.283 127.671 317.416ZM203.753 314.509L215.832 311.678C216.602 311.496 217.437 311.787 217.695 312.325C217.954 312.863 217.538 313.446 216.768 313.626L204.244 316.563L203.753 314.509ZM128.134 312.134L136.898 307.779C137.56 307.45 138.48 307.558 138.95 308.021C139.421 308.483 139.266 309.125 138.604 309.454L127.882 314.782C127.96 313.889 128.045 313.005 128.134 312.134ZM230.723 307.479L211.803 296.961C211.168 296.608 210.242 296.682 209.736 297.126C209.23 297.569 209.335 298.217 209.971 298.57L228.89 309.088C229.525 309.442 230.452 309.369 230.958 308.925C231.463 308.48 231.358 307.834 230.723 307.479ZM235.628 304.944L216.709 294.426C216.073 294.073 215.147 294.147 214.641 294.59C214.135 295.034 214.24 295.682 214.876 296.034L233.795 306.552C234.43 306.905 235.357 306.832 235.863 306.388C236.368 305.944 236.263 305.297 235.628 304.944ZM172.079 306.364L153.206 299.329C152.49 299.061 152.219 298.438 152.601 297.938C152.983 297.437 153.875 297.247 154.592 297.515L172.634 304.24L172.079 306.364ZM173.19 302.111L157.373 296.214C156.657 295.947 156.385 295.324 156.768 294.823C157.15 294.323 158.042 294.133 158.759 294.4L173.745 299.986L173.19 302.111ZM197.777 289.499L210.348 283.188C211.008 282.856 211.928 282.962 212.402 283.423C212.876 283.884 212.725 284.526 212.066 284.857L198.317 291.76L197.777 289.499ZM228.381 272.302C228.974 272.309 229.528 272.568 229.742 272.98L237.985 288.859C238.262 289.391 237.867 289.982 237.103 290.176C236.942 290.215 236.778 290.236 236.615 290.236H236.597C235.997 290.236 235.434 289.975 235.218 289.559L226.975 273.681C226.698 273.147 227.094 272.557 227.857 272.364C228.024 272.323 228.195 272.302 228.363 272.302H228.381ZM242.205 289.813C241.798 289.715 241.456 289.496 241.298 289.191L233.055 273.313C232.778 272.78 233.173 272.189 233.937 271.995C234.104 271.954 234.274 271.934 234.442 271.934H234.46C235.054 271.941 235.607 272.199 235.821 272.612L236.912 274.712C239.143 281.057 241.024 286.435 242.205 289.813ZM196.695 284.972L208.188 279.2C208.848 278.87 209.768 278.974 210.242 279.435C210.716 279.896 210.566 280.54 209.906 280.871L197.236 287.231L196.695 284.972ZM141.093 269.279L140.418 286.162C140.396 286.729 141.036 287.204 141.848 287.219C142.66 287.235 143.337 286.788 143.36 286.22L144.035 269.337C144.057 268.77 143.417 268.297 142.605 268.28C141.793 268.265 141.116 268.712 141.093 269.279ZM138.079 270.79L137.511 285.004C137.489 285.571 136.811 286.018 135.999 286.003C135.188 285.988 134.547 285.513 134.57 284.946L134.776 279.773C135.783 276.821 136.894 273.813 138.079 270.79ZM182.092 268.035L181.445 270.51L166.43 275.375C165.693 275.615 164.818 275.391 164.476 274.877C164.134 274.361 164.455 273.75 165.191 273.512L182.092 268.035ZM183.387 263.076L182.741 265.551L165.379 271.177C164.643 271.416 163.767 271.192 163.425 270.678C163.084 270.163 163.404 269.551 164.141 269.313L183.387 263.076ZM223.084 260.676L198.968 261.899C198.158 261.94 197.548 262.433 197.607 262.999C197.666 263.564 198.371 263.99 199.181 263.949L223.297 262.726C224.108 262.685 224.717 262.192 224.658 261.627C224.599 261.06 223.894 260.635 223.084 260.676ZM224.23 256.489L200.113 257.712C199.303 257.753 198.694 258.247 198.752 258.812C198.811 259.377 199.517 259.804 200.327 259.763L224.443 258.54C225.253 258.497 225.863 258.005 225.804 257.44C225.745 256.873 225.04 256.448 224.23 256.489ZM147.325 249.577L154.569 253.12C155.234 253.445 155.396 254.086 154.93 254.552C154.465 255.016 153.546 255.129 152.881 254.803L146.366 251.617C146.685 250.934 147.005 250.254 147.325 249.577ZM149.278 245.505L159.242 250.379C159.907 250.703 160.069 251.345 159.603 251.809C159.138 252.273 158.219 252.386 157.554 252.063L148.298 247.535C148.627 246.852 148.954 246.175 149.278 245.505ZM186.401 251.538C186.185 251.58 185.952 251.586 185.718 251.552C184.923 251.437 184.41 250.894 184.573 250.339L189.443 233.795C189.607 233.24 190.386 232.882 191.181 232.995C191.976 233.11 192.489 233.653 192.326 234.209L188.043 248.76L187.605 246.929L186.401 251.538ZM181.999 248.844L186.869 232.301C187.033 231.744 186.52 231.201 185.724 231.087C184.929 230.972 184.15 231.332 183.987 231.887L179.116 248.431C178.953 248.986 179.466 249.531 180.261 249.644C181.057 249.759 181.835 249.401 181.999 248.844ZM223.792 237.755C224.072 238.535 224.357 239.325 224.645 240.125L215.617 246.846C215.062 247.259 214.13 247.282 213.538 246.893C212.945 246.504 212.916 245.853 213.471 245.44L223.792 237.755ZM222.442 234.021L222.934 235.379L212.397 243.225C211.841 243.64 210.91 243.66 210.317 243.271C209.725 242.884 209.695 242.233 210.251 241.819L222.077 233.014L222.442 234.021ZM157.339 229.643L171.594 226.717C172.373 226.557 173.191 226.869 173.42 227.414C173.649 227.959 173.202 228.529 172.423 228.69L156.074 232.044C156.51 231.213 156.932 230.412 157.339 229.643ZM187.02 221.968L208.488 229.74C209.209 230.001 210.098 229.804 210.472 229.3C210.845 228.796 210.563 228.176 209.842 227.916L188.374 220.144C187.653 219.882 186.764 220.079 186.39 220.582C186.017 221.086 186.299 221.708 187.02 221.968ZM159.929 224.819L171.445 222.456C172.224 222.295 173.043 222.607 173.272 223.152C173.5 223.697 173.054 224.269 172.275 224.428L158.627 227.229C159.089 226.369 159.524 225.564 159.929 224.819ZM190.55 217.375L193.898 217.506L213.955 224.766C214.676 225.028 214.958 225.648 214.584 226.151C214.211 226.655 213.322 226.852 212.601 226.592L191.133 218.82C190.412 218.559 190.13 217.937 190.503 217.434C190.518 217.415 190.533 217.394 190.55 217.375Z" fill="#FD4B3C"/>
<path fill-rule="evenodd" clip-rule="evenodd" d="M127.899 338.26L128.916 347.067C128.916 347.067 120.314 347.985 118.918 351.975L163.862 350.541L166.024 338.399L127.899 338.26Z" fill="#224D99"/>
<path fill-rule="evenodd" clip-rule="evenodd" d="M247.667 339.06L246.651 347.867C246.651 347.867 255.253 348.785 256.648 352.775L211.704 351.341L209.542 339.199L247.667 339.06Z" fill="#224D99"/>
<path fill-rule="evenodd" clip-rule="evenodd" d="M183.555 171.361C183.85 169.665 184.187 168.147 184.556 167.217C184.729 166.791 185.009 166.389 185.382 166.031C186.794 164.753 191.405 161.361 198.342 164.537C198.342 164.537 200.643 165.069 200.913 171.63C201.357 171.238 202.015 170.99 202.747 170.99C204.083 170.99 205.167 171.814 205.167 172.829C205.167 173.843 204.083 174.667 202.747 174.667C202.057 174.667 201.434 174.447 200.993 174.094C201.112 178.996 200.916 181.111 200.916 181.111L207.964 182.513C207.964 182.513 188.372 191.488 177.396 181.111H182.335C182.335 181.111 182.611 177.929 183.074 174.511C182.776 174.611 182.445 174.667 182.098 174.667C180.762 174.667 179.678 173.843 179.678 172.829C179.678 171.814 180.762 170.99 182.098 170.99C182.644 170.99 183.149 171.128 183.555 171.361Z" fill="#B74D2F"/>
<path fill-rule="evenodd" clip-rule="evenodd" d="M119 197.482L139.543 200.565L142.909 183.01C142.909 183.01 153.453 181.971 152.811 178.341C152.811 178.341 156.446 176.825 154.121 174.687C154.121 174.687 156.993 173.341 154.121 170.79C154.121 170.79 154.533 170.507 154.838 170.097C155.243 169.552 155.458 168.785 154.263 168.167C153.656 167.854 152.922 167.683 152.167 167.681C151.328 167.679 150.032 167.675 150.032 167.675L149.89 168.684L143.819 169.143L143.739 167.533C143.739 167.533 142.598 167.52 141.003 167.503C135.197 167.44 130.058 170.114 128.481 174.017C124.902 182.875 119 197.482 119 197.482Z" fill="#B74D2F"/>
<path fill-rule="evenodd" clip-rule="evenodd" d="M244.789 255.078L256.081 275.231C256.081 275.231 258.716 275.826 258.369 270.8C258.369 270.8 258.44 265.154 261.038 265.928C261.038 265.928 268.018 272.028 268.912 279.983C268.95 280.347 269.31 280.651 269.811 280.749C270.312 280.845 270.846 280.711 271.143 280.413C271.653 279.901 272.081 278.92 272.182 277.107C272.182 277.107 273.819 276.05 273.546 274.125C273.546 274.125 275.09 272.487 274.887 270.8C274.887 270.8 278.335 269.426 276.738 265.313C275.142 261.198 268.976 247.939 268.976 247.939L244.789 255.078Z" fill="#B74D2F"/>
<path fill-rule="evenodd" clip-rule="evenodd" d="M182.998 174.872C183.021 174.915 183.034 174.962 183.034 175.011C183.036 175.189 183.166 175.437 183.376 175.727C183.746 176.24 184.377 176.855 185.209 177.442C186.821 178.58 189.194 179.621 191.952 179.568C194.709 179.516 197.806 178.367 200.927 175.241L200.954 176.595C198.144 179.079 195.338 180.127 192.803 180.347C188.451 180.725 184.812 178.658 183.051 176.928C182.96 176.839 182.875 176.75 182.794 176.663L182.998 174.872Z" fill="#591900"/>
<path fill-rule="evenodd" clip-rule="evenodd" d="M181.171 181.156L182.35 181.156L182.253 182.417C182.236 182.644 181.958 182.818 181.634 182.806C181.309 182.794 181.06 182.6 181.078 182.373L181.171 181.156Z" fill="#591900"/>
<path fill-rule="evenodd" clip-rule="evenodd" d="M200.904 181.134L202.059 181.341L201.964 182.554C201.946 182.78 201.668 182.954 201.344 182.942C201.019 182.929 200.77 182.735 200.788 182.509L200.918 180.87L200.904 181.134Z" fill="#591900"/>
<path fill-rule="evenodd" clip-rule="evenodd" d="M183.546 171.335L183.198 171.158L182.701 174.575L183.09 174.468L183.546 171.335Z" fill="#591900"/>
<path fill-rule="evenodd" clip-rule="evenodd" d="M201.299 171.325L200.878 171.641L200.95 174.106L201.359 174.371L201.299 171.325Z" fill="#591900"/>
<path fill-rule="evenodd" clip-rule="evenodd" d="M195.32 174.769C195.688 174.355 195.714 173.992 195.559 173.701C195.402 173.408 195.046 173.172 194.552 173.029C193.728 172.789 192.494 172.809 191.476 173.194C191.238 173.283 191.149 173.491 191.277 173.658C191.406 173.824 191.704 173.886 191.942 173.797C192.682 173.517 193.576 173.487 194.175 173.661C194.392 173.725 194.571 173.812 194.639 173.94C194.709 174.07 194.65 174.224 194.486 174.408C194.344 174.569 194.415 174.78 194.645 174.88C194.875 174.98 195.178 174.93 195.32 174.769Z" fill="#591900"/>
<path fill-rule="evenodd" clip-rule="evenodd" d="M191.468 173.199C190.934 173.4 190.567 173.849 190.495 174.316C190.421 174.803 190.666 175.29 191.248 175.537C191.877 175.805 192.745 175.809 193.537 175.635C194.311 175.465 194.999 175.128 195.313 174.774C195.455 174.614 195.384 174.402 195.154 174.303C194.924 174.203 194.622 174.253 194.479 174.414C194.264 174.656 193.773 174.865 193.243 174.981C192.73 175.094 192.166 175.125 191.758 174.952C191.496 174.841 191.437 174.608 191.471 174.389C191.507 174.149 191.661 173.905 191.934 173.802C192.172 173.712 192.261 173.504 192.133 173.338C192.004 173.171 191.706 173.109 191.468 173.199Z" fill="#591900"/>
<path fill-rule="evenodd" clip-rule="evenodd" d="M153.423 178.006C153.266 178.105 153.095 178.204 152.908 178.304C152.908 178.304 152.909 178.83 152.521 179.437C150.314 180.08 147.293 180.625 144.403 180.307C144.002 180.263 143.728 180 143.791 179.719C143.854 179.439 144.231 179.248 144.632 179.292C147.916 179.653 151.385 178.767 153.336 178.039C153.365 178.028 153.394 178.018 153.423 178.006ZM154.225 174.616C154.184 174.644 154.142 174.672 154.098 174.699C154.098 174.699 154.585 175.027 154.804 175.562C152.904 176.039 148.572 177.017 144.506 176.841C144.101 176.823 143.792 176.579 143.817 176.296C143.843 176.013 144.192 175.797 144.597 175.815C148.367 175.978 152.374 175.082 154.225 174.616ZM154.01 170.815C154.125 170.895 154.562 171.213 154.903 171.666C152.247 172.495 147.506 173.029 145.018 173.052C144.612 173.056 144.278 172.828 144.273 172.545C144.268 172.261 144.593 172.028 144.999 172.024C147.252 172.004 151.474 171.546 154.01 170.815Z" fill="#591900"/>
<path fill-rule="evenodd" clip-rule="evenodd" d="M142.682 184.026C141.888 184.019 141.009 183.933 140.217 183.896C139.811 183.878 139.504 183.633 139.53 183.35C139.557 183.067 139.907 182.852 140.312 182.871C141.18 182.91 142.042 182.947 142.912 182.948H142.927C142.922 182.948 142.917 182.948 142.912 182.948C142.912 182.948 142.831 183.531 142.682 184.026Z" fill="#591900"/>
<path fill-rule="evenodd" clip-rule="evenodd" d="M151.665 168.5C151.753 168.479 151.848 168.47 151.946 168.474C152.635 168.505 152.66 168.921 152.662 168.976C152.666 169.082 152.647 169.352 152.18 169.474C152.126 169.488 151.734 169.528 151.581 169.542C151.272 169.57 150.963 169.6 150.653 169.625C149.802 169.694 148.949 169.759 148.095 169.816C145.457 169.995 142.813 170.181 140.159 170.121C139.753 170.112 139.434 169.874 139.447 169.59C139.461 169.307 139.801 169.084 140.207 169.094C142.798 169.152 145.378 168.967 147.954 168.793C148.798 168.736 149.641 168.672 150.484 168.604C150.786 168.579 151.087 168.55 151.388 168.523C151.443 168.518 151.574 168.507 151.665 168.5Z" fill="#591900"/>
<path fill-rule="evenodd" clip-rule="evenodd" d="M271.836 279.024C271.824 275.915 271.28 273.008 270.472 269.914C270.276 269.162 269.876 267.8 269.666 267.051C269.588 266.772 269.849 266.502 270.247 266.448C270.646 266.394 271.032 266.575 271.11 266.854C271.321 267.606 271.723 268.975 271.92 269.731C272.49 271.911 272.929 274.001 273.15 276.132C272.944 276.494 272.642 276.855 272.201 277.175C272.201 277.175 272.083 278.239 271.836 279.024ZM274.187 273.345C273.831 271.557 273.254 269.857 272.635 268.09C272.3 267.134 271.993 266.277 271.486 265.121C271.368 264.85 271.586 264.562 271.975 264.479C272.363 264.396 272.775 264.549 272.893 264.819C273.41 266 273.723 266.872 274.064 267.845C274.402 268.811 274.728 269.758 275.013 270.709C274.984 270.719 274.956 270.729 274.927 270.74C274.927 270.74 274.795 272.29 274.187 273.345ZM275.745 270.248C275.386 268.838 274.9 267.44 274.37 266.058C274.133 265.44 273.718 264.408 273.462 263.793C273.349 263.521 273.574 263.235 273.964 263.156C274.354 263.077 274.762 263.235 274.875 263.507C275.133 264.127 275.552 265.167 275.792 265.792C276.171 266.783 276.528 267.781 276.834 268.787C276.626 269.188 276.256 269.799 275.745 270.248Z" fill="#591900"/>
<path fill-rule="evenodd" clip-rule="evenodd" d="M139.512 203.657L152.314 189.021C156.907 183.77 165.174 180.641 173.98 180.82C176.349 180.869 177.63 181.082 177.63 181.082L178.705 182.125C178.705 182.125 176.302 182.017 173.932 181.969C165.716 181.801 158.002 184.721 153.717 189.62C147.308 196.947 138.927 206.53 138.927 206.53C138.725 206.762 138.319 206.863 137.954 206.774C137.588 206.685 137.361 206.428 137.409 206.16L138.393 200.637C138.449 200.322 138.86 200.098 139.31 200.138C139.761 200.177 140.081 200.464 140.025 200.779L139.512 203.657Z" fill="black"/>
<path fill-rule="evenodd" clip-rule="evenodd" d="M165.874 208.708L140.947 231.425C139.234 232.985 136.677 233.986 133.877 234.188C133.877 234.188 133.877 234.188 133.877 234.188C127.365 234.662 120.931 232.896 116.622 229.453C112.312 226.011 110.665 221.321 112.205 216.878C115.962 206.029 118.992 197.38 118.992 197.38L120.591 197.651C120.591 197.651 117.561 206.299 113.804 217.147C112.39 221.229 113.902 225.535 117.86 228.697C121.818 231.858 127.727 233.48 133.707 233.045C133.707 233.045 133.707 233.045 133.707 233.045C136.058 232.876 138.204 232.036 139.641 230.726C146.729 224.266 166.643 206.117 166.643 206.117C166.875 205.907 167.282 205.834 167.629 205.942C167.977 206.049 168.174 206.309 168.105 206.57L165.377 217.056L163.481 217.095L165.874 208.708Z" fill="black"/>
<path fill-rule="evenodd" clip-rule="evenodd" d="M207.929 182.47C207.755 182.47 204.958 183.636 204.958 183.636C205.123 183.633 207.917 183.644 208.08 183.644C218.941 183.615 229.282 187.764 233.741 194.704C245.879 213.595 268.112 248.198 268.112 248.198C268.298 248.488 268.786 248.616 269.2 248.488C269.614 248.358 269.799 248.017 269.613 247.727C269.613 247.727 247.38 213.124 235.242 194.234C230.516 186.878 219.438 182.44 207.929 182.47Z" fill="black"/>
<path fill-rule="evenodd" clip-rule="evenodd" d="M215.431 216.444L213.879 202.189C213.839 201.873 213.44 201.639 212.988 201.667C212.536 201.695 212.201 201.974 212.241 202.29L213.704 216.451L215.431 216.444Z" fill="black"/>
<path fill-rule="evenodd" clip-rule="evenodd" d="M212.555 204.931L245.027 255.545C245.213 255.834 245.7 255.965 246.114 255.834C246.528 255.704 246.714 255.365 246.528 255.076L214.056 204.461C213.87 204.172 213.383 204.042 212.969 204.172C212.555 204.302 212.369 204.642 212.555 204.931Z" fill="black"/>
<path fill-rule="evenodd" clip-rule="evenodd" d="M247.159 216.449C247.159 216.449 242.458 226.042 255.623 229.1C256.054 229.199 256.52 229.036 256.663 228.735C256.806 228.435 256.573 228.11 256.142 228.009C244.516 225.309 248.714 216.822 248.714 216.822C248.862 216.523 248.633 216.196 248.204 216.093C247.775 215.99 247.306 216.149 247.159 216.449Z" fill="black"/>
<path fill-rule="evenodd" clip-rule="evenodd" d="M117.359 229.299C117.359 229.299 120.794 227.575 125.237 228.024C128.255 228.328 131.702 229.645 134.903 233.098C135.15 233.364 135.66 233.441 136.041 233.268C136.422 233.097 136.531 232.74 136.284 232.475C132.723 228.632 128.829 227.224 125.472 226.887C120.352 226.371 116.397 228.367 116.397 228.367C116.029 228.552 115.946 228.912 116.211 229.169C116.476 229.426 116.991 229.484 117.359 229.299Z" fill="black"/>
<path fill-rule="evenodd" clip-rule="evenodd" d="M137.642 205.061C137.642 205.061 136.983 208.661 136.427 211.7C136.382 211.945 136.607 212.174 136.949 212.234C137.293 212.292 137.645 212.164 137.769 211.933C140.237 207.345 144 200.351 144 200.351L137.642 205.061Z" fill="black"/>
<path fill-rule="evenodd" clip-rule="evenodd" d="M156.247 129.66C156.385 129.585 156.588 129.479 156.702 129.444C158.815 128.804 160.997 128.27 163.156 127.71C171.096 125.652 179.119 123.757 187.177 121.936C207.063 117.441 227.587 114.833 248.328 113.155C257.848 112.384 268.703 111.252 277.786 114.019C279.576 114.565 281.898 116.582 281.898 116.582L282.018 116.735C285.756 124.379 281.873 136.799 281.873 136.799C281.787 137.074 281.401 137.249 281.006 137.192C281.006 137.192 279.416 136.962 279.033 136.87C276.155 136.18 273.289 135.609 270.282 135.257C261.686 134.253 253.141 134.485 244.557 135.435C232.201 136.802 220.045 138.883 207.881 140.898C189.226 143.986 169.374 146.811 152.395 153.29C152.038 153.426 151.591 153.334 151.396 153.085C151.202 152.836 151.333 152.524 151.689 152.388C168.783 145.866 188.762 143.007 207.541 139.897C219.742 137.877 231.934 135.791 244.327 134.42C253.069 133.452 261.771 133.221 270.525 134.244C273.612 134.604 276.556 135.189 279.511 135.898C279.691 135.941 280.167 136.017 280.583 136.08C281.247 133.741 283.8 123.688 280.665 117.15C280.28 116.816 278.572 115.38 277.198 114.961C268.35 112.265 257.772 113.425 248.497 114.176C227.853 115.846 207.424 118.44 187.63 122.914C179.592 124.731 171.589 126.621 163.668 128.674C161.542 129.225 159.392 129.75 157.31 130.38C157.285 130.394 157.177 130.456 157.118 130.49C156.976 130.573 156.831 130.641 156.706 130.677C156.471 130.745 156.251 130.743 156.056 130.695C155.907 130.659 155.763 130.594 155.641 130.478C155.4 130.25 155.47 129.928 155.798 129.76C155.933 129.69 156.091 129.658 156.247 129.66Z" fill="#FFD274"/>
<path fill-rule="evenodd" clip-rule="evenodd" d="M373.164 130.415C372.522 129.552 371.146 128.674 369.436 127.807C364.34 125.223 356.203 122.885 353.064 122.077C334.666 117.341 303.139 116.62 283.531 120.3C283.139 120.374 282.735 120.211 282.63 119.937C282.524 119.663 282.757 119.381 283.15 119.307C303.008 115.58 334.938 116.316 353.572 121.113C356.782 121.939 365.091 124.334 370.3 126.975C372.674 128.178 374.398 129.455 374.873 130.645C374.998 130.961 374.788 131.411 373.775 131.454C372.514 131.506 368.84 131.005 366.138 130.878C360.441 130.612 354.646 130.492 348.937 130.515C348.78 130.515 348.623 130.515 348.466 130.516C348.316 130.518 348.169 130.52 348.019 130.523C347.323 130.536 346.629 130.559 345.937 130.597C346.913 130.783 347.872 131.007 348.814 131.263C354.695 132.859 360.161 135.97 364.468 139.143C365.015 139.545 366.923 140.872 367.766 141.978C368.254 142.616 368.362 143.212 368.058 143.623C367.953 143.766 367.764 143.893 367.45 143.949C367.219 143.99 366.822 143.985 366.307 143.905C364.223 143.58 359.357 142.064 357.824 141.69C351.703 140.197 345.207 139.338 338.762 138.904C322.798 137.828 307.65 140.187 292.156 142.509C287.614 143.189 281.856 144.216 276.46 144.21C272.745 144.206 269.201 143.712 266.299 142.33C263.622 141.054 259.998 138.005 261.787 134.223C261.915 133.954 262.331 133.807 262.717 133.896C263.102 133.985 263.312 134.276 263.184 134.545C261.65 137.791 264.831 140.386 267.128 141.481C269.791 142.749 273.053 143.178 276.462 143.182C281.752 143.188 287.395 142.171 291.848 141.504C307.49 139.16 322.786 136.794 338.904 137.881C345.464 138.323 352.078 139.199 358.31 140.72C359.634 141.043 363.477 142.234 365.797 142.741C366.113 142.811 366.474 142.866 366.734 142.902C366.724 142.876 366.709 142.849 366.697 142.822C366.582 142.579 366.364 142.313 366.101 142.041C365.221 141.124 363.838 140.173 363.401 139.85C359.237 136.783 353.967 133.764 348.282 132.22C346.244 131.667 344.108 131.269 341.933 131.093C341.866 131.088 341.624 131.067 341.503 131.03C341.292 130.966 341.17 130.861 341.104 130.764C341.035 130.665 340.878 130.203 341.579 130.035C341.935 129.95 343.843 129.723 343.941 129.713C345.283 129.582 346.626 129.521 347.98 129.496C348.137 129.493 348.292 129.49 348.446 129.489C348.606 129.487 348.767 129.488 348.927 129.487C354.673 129.464 360.502 129.585 366.236 129.853C368.345 129.951 371.053 130.284 372.715 130.396C372.865 130.406 373.019 130.412 373.164 130.415Z" fill="#FFD274"/>
<path fill-rule="evenodd" clip-rule="evenodd" d="M281.632 136.631C281.632 136.631 283.51 140.826 264.244 140.714C264.244 140.714 259.655 137.176 262.654 134.082C262.654 134.082 272.923 134.762 281.632 136.631Z" fill="#FFD274"/>
<path fill-rule="evenodd" clip-rule="evenodd" d="M147.491 182.117L143.565 204.178L137.157 203.621L140.837 182.945C142.714 182.776 146.037 182.321 147.491 182.117ZM143.293 169.146L151.15 124.998L157.559 125.555L149.888 168.652C147.824 168.805 144.576 169.049 143.293 169.146Z" fill="#224D99"/>
<path fill-rule="evenodd" clip-rule="evenodd" d="M265.419 266.878C266.389 266.328 266.563 265.343 265.808 264.68C265.052 264.017 263.651 263.926 262.681 264.475L258.301 266.96C257.332 267.51 257.158 268.494 257.914 269.157C258.669 269.82 260.069 269.913 261.039 269.363L265.419 266.878Z" fill="#4B0000"/>
<path fill-rule="evenodd" clip-rule="evenodd" d="M267.872 268.991C268.842 268.441 269.017 267.456 268.262 266.793C267.507 266.13 266.106 266.039 265.136 266.59L260.755 269.075C259.786 269.625 259.612 270.609 260.367 271.272C261.122 271.935 262.522 272.026 263.491 271.476L267.872 268.991Z" fill="#4B0000"/>
<path fill-rule="evenodd" clip-rule="evenodd" d="M270.326 271.048C271.296 270.498 271.471 269.513 270.716 268.85C269.961 268.187 268.559 268.096 267.59 268.646L263.209 271.131C262.239 271.681 262.065 272.666 262.821 273.328C263.576 273.991 264.975 274.083 265.945 273.533L270.326 271.048Z" fill="#4B0000"/>
<path fill-rule="evenodd" clip-rule="evenodd" d="M272.779 273.105C273.749 272.555 273.924 271.569 273.169 270.906C272.414 270.244 271.013 270.153 270.043 270.703L265.662 273.188C264.693 273.738 264.519 274.722 265.274 275.385C266.029 276.048 267.429 276.14 268.399 275.59L272.779 273.105Z" fill="#4B0000"/>
<path fill-rule="evenodd" clip-rule="evenodd" d="M266.139 265.958C266.291 265.676 266.326 265.356 266.253 265.005L258.878 269.768C259.218 269.897 259.648 269.898 260.081 269.87L266.139 265.958Z" fill="#A54C36"/>
<path fill-rule="evenodd" clip-rule="evenodd" d="M262.039 271.942L262.632 271.985C262.447 272.209 262.321 272.423 262.407 272.604L268.486 268.651L269.281 268.171L268.56 268.193C268.723 267.989 268.808 267.788 268.796 267.592L262.039 271.942Z" fill="#A54C36"/>
<path fill-rule="evenodd" clip-rule="evenodd" d="M264.922 274.167C264.799 274.469 264.777 274.771 264.911 275.039L272.043 270.506L272.348 270.296C272.011 270.197 271.637 270.146 271.214 270.159L264.922 274.167Z" fill="#A54C36"/>
</svg>

