<svg width="46" height="62" viewBox="0 0 46 62" fill="none" xmlns="http://www.w3.org/2000/svg">
<path d="M19.3101 0.588554C18.7759 0.640892 17.8073 0.840733 17.2555 1.01202C14.2968 1.93985 12.0661 4.08575 11.4144 6.64561C11.3205 7.00723 11.3147 8.00167 11.2912 19.6923C11.2736 33.1292 11.2677 32.9436 11.5495 33.8476C12.4476 36.731 15.5061 39.0007 19.087 39.4384C19.903 39.5431 26.7009 39.5431 27.5287 39.4384C30.6517 39.0578 33.4284 37.2639 34.6788 34.8183C34.8608 34.4519 35.1719 33.6192 35.1719 33.4765C35.1719 33.4337 34.2385 33.4194 30.7104 33.4194H26.2489V32.2061V30.9928H30.7985H35.348V29.7795V28.5662H30.7985H26.2489V27.3528V26.1395L30.7867 26.13L35.3186 26.1157V24.9024V23.6891L30.7867 23.6748L26.2489 23.6653V22.452V21.2387H30.7985H35.348V20.0254V18.8121H30.7985H26.2489V17.5987V16.3854H30.7985H35.348V15.1721V13.9588H30.7985H26.2489V12.7217V11.4846H30.7985H35.348V10.2713V9.05796H30.7985H26.2489V7.84465V6.63133H30.7104H35.1778L35.1367 6.45053C35.0662 6.1127 34.6436 5.14681 34.3853 4.73285C33.2523 2.92002 31.2622 1.50687 28.9669 0.897831C27.7165 0.569519 27.7869 0.57428 23.5485 0.560005C21.4352 0.555248 19.5273 0.569519 19.3101 0.588554Z" fill="#32D62E"/>
<path d="M0.788862 28.5995C0.812344 34.0189 0.800603 33.8191 1.18805 35.3464C1.79857 37.7445 3.1194 39.9904 5.13295 42.0458C5.72586 42.6549 7.36369 43.9872 8.14445 44.4963C11.4436 46.6422 15.3768 47.8698 19.4156 48.0173L20.2903 48.0506V52.3091V56.5676L13.9092 56.5818L7.52219 56.5914V59.018V61.4446H23.3135H39.1049V59.018V56.5914L32.7238 56.5818L26.3368 56.5676V52.3091V48.0506L27.2115 48.0173C31.2503 47.8698 35.1834 46.6422 38.4826 44.4963C39.2634 43.9872 40.9012 42.6549 41.4941 42.0458C43.5076 39.9904 44.8285 37.7445 45.439 35.3464C45.8265 33.8191 45.8147 34.0189 45.8382 28.5995L45.8617 23.6653H42.8678H39.8739L39.8504 28.3853C39.8328 32.9531 39.8269 33.1339 39.7036 33.7572C39.463 34.9848 39.0227 36.0602 38.3182 37.1593C37.6549 38.1918 36.9857 38.9341 35.9349 39.8143C33.8391 41.5653 31.2679 42.6454 28.2153 43.0641C27.6283 43.1402 27.1821 43.1497 23.3135 43.1497C18.6231 43.1497 18.629 43.1497 17.0792 42.8357C13.375 42.0792 10.1169 39.9666 8.30882 37.1593C7.60438 36.0602 7.1641 34.9848 6.92341 33.7572C6.80014 33.1339 6.79427 32.9531 6.77665 28.3853L6.75317 23.6653H3.75928H0.765381L0.788862 28.5995Z" fill="#32D62E"/>
</svg>
