<svg width="46" height="62" viewBox="0 0 46 62" fill="none" xmlns="http://www.w3.org/2000/svg">
<path d="M19.3101 0.880455C18.7759 0.932793 17.8073 1.13263 17.2555 1.30392C14.2968 2.23175 12.0661 4.37766 11.4144 6.93751C11.3205 7.29913 11.3147 8.29357 11.2912 19.9842C11.2736 33.4211 11.2677 33.2355 11.5495 34.1395C12.4476 37.0229 15.5061 39.2926 19.087 39.7303C19.903 39.835 26.7009 39.835 27.5287 39.7303C30.6517 39.3497 33.4284 37.5558 34.6788 35.1102C34.8608 34.7438 35.1719 33.9111 35.1719 33.7684C35.1719 33.7256 34.2385 33.7113 30.7104 33.7113H26.2489V32.498V31.2847H30.7985H35.348V30.0714V28.8581H30.7985H26.2489V27.6447V26.4314L30.7867 26.4219L35.3186 26.4076V25.1943V23.981L30.7867 23.9667L26.2489 23.9572V22.7439V21.5306H30.7985H35.348V20.3173V19.104H30.7985H26.2489V17.8906V16.6773H30.7985H35.348V15.464V14.2507H30.7985H26.2489V13.0136V11.7765H30.7985H35.348V10.5632V9.34986H30.7985H26.2489V8.13655V6.92323H30.7104H35.1778L35.1367 6.74243C35.0662 6.4046 34.6436 5.43871 34.3853 5.02475C33.2523 3.21192 31.2622 1.79877 28.9669 1.18973C27.7165 0.86142 27.7869 0.86618 23.5485 0.851906C21.4352 0.847149 19.5273 0.86142 19.3101 0.880455Z" fill="#C32C2C"/>
<path d="M0.788862 28.8914C0.812344 34.3108 0.800603 34.111 1.18805 35.6383C1.79857 38.0364 3.1194 40.2823 5.13295 42.3377C5.72586 42.9468 7.36369 44.2791 8.14445 44.7882C11.4436 46.9341 15.3768 48.1617 19.4156 48.3092L20.2903 48.3425V52.601V56.8595L13.9092 56.8737L7.52219 56.8833V59.3099V61.7365H23.3135H39.1049V59.3099V56.8833L32.7238 56.8737L26.3368 56.8595V52.601V48.3425L27.2115 48.3092C31.2503 48.1617 35.1834 46.9341 38.4826 44.7882C39.2634 44.2791 40.9012 42.9468 41.4941 42.3377C43.5076 40.2823 44.8285 38.0364 45.439 35.6383C45.8265 34.111 45.8147 34.3108 45.8382 28.8914L45.8617 23.9572H42.8678H39.8739L39.8504 28.6772C39.8328 33.245 39.8269 33.4258 39.7036 34.0491C39.463 35.2767 39.0227 36.3521 38.3182 37.4512C37.6549 38.4837 36.9857 39.226 35.9349 40.1062C33.8391 41.8572 31.2679 42.9373 28.2153 43.356C27.6283 43.4321 27.1821 43.4416 23.3135 43.4416C18.6231 43.4416 18.629 43.4416 17.0792 43.1276C13.375 42.3711 10.1169 40.2585 8.30882 37.4512C7.60438 36.3521 7.1641 35.2767 6.92341 34.0491C6.80014 33.4258 6.79427 33.245 6.77665 28.6772L6.75317 23.9572H3.75928H0.765381L0.788862 28.8914Z" fill="#C32C2C"/>
</svg>
